<?xml version="1.0" encoding="UTF-8" standalone="no"?><svg xmlns="http://www.w3.org/2000/svg" xmlns:xlink="http://www.w3.org/1999/xlink" contentScriptType="application/ecmascript" contentStyleType="text/css" height="477.6px" preserveAspectRatio="none" style="width:1332px;height:477px;background:#FFFFFF;" version="1.1" viewBox="0 0 1332 477" width="1332.8px" zoomAndPan="magnify"><defs><filter height="300%" id="f1w81ak25wg6s2" width="300%" x="-1" y="-1"><feGaussianBlur result="blurOut" stdDeviation="1.6000000000000003"/><feColorMatrix in="blurOut" result="blurOut2" type="matrix" values="0 0 0 0 0 0 0 0 0 0 0 0 0 0 0 0 0 0 .4 0"/><feOffset dx="3.2000000000000006" dy="3.2000000000000006" in="blurOut2" result="blurOut3"/><feBlend in="SourceGraphic" in2="blurOut3" mode="normal"/></filter></defs><g><text fill="#000000" font-family="sans-serif" font-size="14.4" lengthAdjust="spacing" text-decoration="underline" textLength="216" x="553.42" y="14.9484">CONTROLLERS's Class Diagram</text><text fill="#000000" font-family="sans-serif" font-size="14.4" lengthAdjust="spacing" textLength="0" x="663.42" y="33.0609"/><!--MD5=[588f77091306e95fd869e560e39b47b7]
cluster sv.edu.udb.www.jobboard--><polygon fill="#FFFFFF" filter="url(#f1w81ak25wg6s2)" points="226.04,41.025,377.24,41.025,382.84,59.9125,1319.64,59.9125,1319.64,308.225,226.04,308.225,226.04,41.025" style="stroke:#000000;stroke-width:1.2000000000000002;"/><line style="stroke:#000000;stroke-width:1.2000000000000002;" x1="226.04" x2="382.84" y1="59.9125" y2="59.9125"/><text fill="#000000" font-family="sans-serif" font-size="11.2" font-weight="bold" lengthAdjust="spacing" textLength="146.4" x="229.24" y="54.2516">sv.edu.udb.www.jobboard</text><!--MD5=[fac9dca53c5de076e0e15d4c9afdc8c6]
cluster sv.edu.udb.www.jobboard.controllers--><polygon fill="#FFFFFF" filter="url(#f1w81ak25wg6s2)" points="245.24,76.225,311.64,76.225,317.24,95.1125,1300.44,95.1125,1300.44,289.025,245.24,289.025,245.24,76.225" style="stroke:#000000;stroke-width:1.2000000000000002;"/><line style="stroke:#000000;stroke-width:1.2000000000000002;" x1="245.24" x2="317.24" y1="95.1125" y2="95.1125"/><text fill="#000000" font-family="sans-serif" font-size="11.2" font-weight="bold" lengthAdjust="spacing" textLength="61.6" x="248.44" y="89.4516">controllers</text><!--MD5=[853d19fd69bc469d7e986c12670608e0]
cluster sv.edu.udb.www.jobboard.services--><polygon fill="#FFFFFF" filter="url(#f1w81ak25wg6s2)" points="281.24,348.225,484.44,348.225,490.04,367.1125,1226.84,367.1125,1226.84,428.225,281.24,428.225,281.24,348.225" style="stroke:#000000;stroke-width:1.2000000000000002;"/><line style="stroke:#000000;stroke-width:1.2000000000000002;" x1="281.24" x2="490.04" y1="367.1125" y2="367.1125"/><text fill="#000000" font-family="sans-serif" font-size="11.2" font-weight="bold" lengthAdjust="spacing" textLength="198.4" x="284.44" y="361.4516">sv.edu.udb.www.jobboard.services</text><!--MD5=[82d6df5615cb0d3d83ee67c35ea04d58]
class sv.edu.udb.www.jobboard.controllers.AdminController--><rect codeLine="6" fill="#FEFECE" filter="url(#f1w81ak25wg6s2)" height="126.95" id="sv.edu.udb.www.jobboard.controllers.AdminController" style="stroke:#A80036;stroke-width:1.2000000000000002;" width="102.4" x="258.04" y="127.025"/><ellipse cx="272.56" cy="139.825" fill="#ADD1B2" rx="8.8" ry="8.8" style="stroke:#A80036;stroke-width:0.8000000000000002;"/><path d="M274.16,137.025 Q274.3225,136.625 274.51,136.425 Q274.6975,136.225 274.91,136.225 Q275.285,136.225 275.5225,136.45 Q275.76,136.675 275.76,137.2 L275.76,138.45 Q275.76,138.975 275.535,139.2 Q275.31,139.425 274.96,139.425 Q274.6475,139.425 274.4475,139.2875 Q274.2475,139.15 274.16,138.7875 Q274.1225,138.5375 273.985,138.4 Q273.735,138.1375 273.285,137.9875 Q272.835,137.825 272.385,137.825 Q271.8225,137.825 271.3475,138.05 Q270.885,138.275 270.5225,138.775 Q270.16,139.275 270.16,139.9625 L270.16,140.7 Q270.16,141.525 270.835,142.075 Q271.51,142.625 272.71,142.625 Q273.4225,142.625 273.9225,142.4625 Q274.21,142.375 274.535,142.0875 Q274.7475,141.925 274.86,141.875 Q274.9725,141.825 275.11,141.825 Q275.3725,141.825 275.56,142.0375 Q275.76,142.2375 275.76,142.525 Q275.76,142.8 275.485,143.125 Q275.085,143.6 274.4475,143.8625 Q273.61,144.225 272.585,144.225 Q271.385,144.225 270.4225,143.75 Q269.6475,143.375 269.0975,142.5625 Q268.56,141.75 268.56,140.7875 L268.56,139.9125 Q268.56,138.9125 269.035,138.0375 Q269.5225,137.1625 270.36,136.7 Q271.21,136.225 272.16,136.225 Q272.735,136.225 273.235,136.425 Q273.735,136.625 274.16,137.025 Z " fill="#000000"/><text fill="#000000" font-family="sans-serif" font-size="9.6" lengthAdjust="spacing" textLength="71.2" x="284.32" y="143.7531">AdminController</text><line style="stroke:#A80036;stroke-width:1.2000000000000002;" x1="258.84" x2="359.64" y1="152.625" y2="152.625"/><line style="stroke:#A80036;stroke-width:1.2000000000000002;" x1="258.84" x2="359.64" y1="159.025" y2="159.025"/><ellipse cx="266.84" cy="167.825" fill="#84BE84" rx="2.4" ry="2.4" style="stroke:#038048;stroke-width:0.8000000000000002;"/><text fill="#000000" font-family="sans-serif" font-size="8.8" lengthAdjust="spacing" textLength="48" x="274.04" y="171.3602">companies()</text><ellipse cx="266.84" cy="178.8938" fill="#84BE84" rx="2.4" ry="2.4" style="stroke:#038048;stroke-width:0.8000000000000002;"/><text fill="#000000" font-family="sans-serif" font-size="8.8" lengthAdjust="spacing" textLength="76" x="274.04" y="182.4289">displayCompanies()</text><ellipse cx="266.84" cy="189.9625" fill="#84BE84" rx="2.4" ry="2.4" style="stroke:#038048;stroke-width:0.8000000000000002;"/><text fill="#000000" font-family="sans-serif" font-size="8.8" lengthAdjust="spacing" textLength="54.4" x="274.04" y="193.4977">displayOffer()</text><ellipse cx="266.84" cy="201.0313" fill="#84BE84" rx="2.4" ry="2.4" style="stroke:#038048;stroke-width:0.8000000000000002;"/><text fill="#000000" font-family="sans-serif" font-size="8.8" lengthAdjust="spacing" textLength="81.6" x="274.04" y="204.5664">displayProfessional()</text><ellipse cx="266.84" cy="212.1" fill="#84BE84" rx="2.4" ry="2.4" style="stroke:#038048;stroke-width:0.8000000000000002;"/><text fill="#000000" font-family="sans-serif" font-size="8.8" lengthAdjust="spacing" textLength="44" x="274.04" y="215.6352">getOffers()</text><ellipse cx="266.84" cy="223.1688" fill="#84BE84" rx="2.4" ry="2.4" style="stroke:#038048;stroke-width:0.8000000000000002;"/><text fill="#000000" font-family="sans-serif" font-size="8.8" lengthAdjust="spacing" textLength="41.6" x="274.04" y="226.7039">initBinder()</text><ellipse cx="266.84" cy="234.2375" fill="#84BE84" rx="2.4" ry="2.4" style="stroke:#038048;stroke-width:0.8000000000000002;"/><text fill="#000000" font-family="sans-serif" font-size="8.8" lengthAdjust="spacing" textLength="33.6" x="274.04" y="237.7727">module()</text><ellipse cx="266.84" cy="245.3063" fill="#84BE84" rx="2.4" ry="2.4" style="stroke:#038048;stroke-width:0.8000000000000002;"/><text fill="#000000" font-family="sans-serif" font-size="8.8" lengthAdjust="spacing" textLength="59.2" x="274.04" y="248.8414">professionals()</text><!--MD5=[fa5b33d37219e91afb6bdc17e7e83d93]
class sv.edu.udb.www.jobboard.controllers.AreaController--><rect codeLine="16" fill="#FEFECE" filter="url(#f1w81ak25wg6s2)" height="126.95" id="sv.edu.udb.www.jobboard.controllers.AreaController" style="stroke:#A80036;stroke-width:1.2000000000000002;" width="97.6" x="810.04" y="127.025"/><ellipse cx="826" cy="139.825" fill="#ADD1B2" rx="8.8" ry="8.8" style="stroke:#A80036;stroke-width:0.8000000000000002;"/><path d="M827.6,137.025 Q827.7625,136.625 827.95,136.425 Q828.1375,136.225 828.35,136.225 Q828.725,136.225 828.9625,136.45 Q829.2,136.675 829.2,137.2 L829.2,138.45 Q829.2,138.975 828.975,139.2 Q828.75,139.425 828.4,139.425 Q828.0875,139.425 827.8875,139.2875 Q827.6875,139.15 827.6,138.7875 Q827.5625,138.5375 827.425,138.4 Q827.175,138.1375 826.725,137.9875 Q826.275,137.825 825.825,137.825 Q825.2625,137.825 824.7875,138.05 Q824.325,138.275 823.9625,138.775 Q823.6,139.275 823.6,139.9625 L823.6,140.7 Q823.6,141.525 824.275,142.075 Q824.95,142.625 826.15,142.625 Q826.8625,142.625 827.3625,142.4625 Q827.65,142.375 827.975,142.0875 Q828.1875,141.925 828.3,141.875 Q828.4125,141.825 828.55,141.825 Q828.8125,141.825 829,142.0375 Q829.2,142.2375 829.2,142.525 Q829.2,142.8 828.925,143.125 Q828.525,143.6 827.8875,143.8625 Q827.05,144.225 826.025,144.225 Q824.825,144.225 823.8625,143.75 Q823.0875,143.375 822.5375,142.5625 Q822,141.75 822,140.7875 L822,139.9125 Q822,138.9125 822.475,138.0375 Q822.9625,137.1625 823.8,136.7 Q824.65,136.225 825.6,136.225 Q826.175,136.225 826.675,136.425 Q827.175,136.625 827.6,137.025 Z " fill="#000000"/><text fill="#000000" font-family="sans-serif" font-size="9.6" lengthAdjust="spacing" textLength="63.2" x="838.08" y="143.7531">AreaController</text><line style="stroke:#A80036;stroke-width:1.2000000000000002;" x1="810.84" x2="906.84" y1="152.625" y2="152.625"/><line style="stroke:#A80036;stroke-width:1.2000000000000002;" x1="810.84" x2="906.84" y1="159.025" y2="159.025"/><ellipse cx="818.84" cy="167.825" fill="#84BE84" rx="2.4" ry="2.4" style="stroke:#038048;stroke-width:0.8000000000000002;"/><text fill="#000000" font-family="sans-serif" font-size="8.8" lengthAdjust="spacing" textLength="48.8" x="826.04" y="171.3602">deleteArea()</text><ellipse cx="818.84" cy="178.8938" fill="#84BE84" rx="2.4" ry="2.4" style="stroke:#038048;stroke-width:0.8000000000000002;"/><text fill="#000000" font-family="sans-serif" font-size="8.8" lengthAdjust="spacing" textLength="37.6" x="826.04" y="182.4289">getArea()</text><ellipse cx="818.84" cy="189.9625" fill="#84BE84" rx="2.4" ry="2.4" style="stroke:#038048;stroke-width:0.8000000000000002;"/><text fill="#000000" font-family="sans-serif" font-size="8.8" lengthAdjust="spacing" textLength="41.6" x="826.04" y="193.4977">initBinder()</text><ellipse cx="818.84" cy="201.0313" fill="#84BE84" rx="2.4" ry="2.4" style="stroke:#038048;stroke-width:0.8000000000000002;"/><text fill="#000000" font-family="sans-serif" font-size="8.8" lengthAdjust="spacing" textLength="33.6" x="826.04" y="204.5664">module()</text><ellipse cx="818.84" cy="212.1" fill="#84BE84" rx="2.4" ry="2.4" style="stroke:#038048;stroke-width:0.8000000000000002;"/><text fill="#000000" font-family="sans-serif" font-size="8.8" lengthAdjust="spacing" textLength="43.2" x="826.04" y="215.6352">newArea()</text><ellipse cx="818.84" cy="223.1688" fill="#84BE84" rx="2.4" ry="2.4" style="stroke:#038048;stroke-width:0.8000000000000002;"/><text fill="#000000" font-family="sans-serif" font-size="8.8" lengthAdjust="spacing" textLength="44.8" x="826.04" y="226.7039">saveArea()</text><ellipse cx="818.84" cy="234.2375" fill="#84BE84" rx="2.4" ry="2.4" style="stroke:#038048;stroke-width:0.8000000000000002;"/><text fill="#000000" font-family="sans-serif" font-size="8.8" lengthAdjust="spacing" textLength="76.8" x="826.04" y="237.7727">saveUpdatedArea()</text><ellipse cx="818.84" cy="245.3063" fill="#84BE84" rx="2.4" ry="2.4" style="stroke:#038048;stroke-width:0.8000000000000002;"/><text fill="#000000" font-family="sans-serif" font-size="8.8" lengthAdjust="spacing" textLength="52" x="826.04" y="248.8414">updateArea()</text><!--MD5=[5eb2785aaac6cdf205019d5d92a929d0]
class sv.edu.udb.www.jobboard.controllers.CompanyController--><rect codeLine="26" fill="#FEFECE" filter="url(#f1w81ak25wg6s2)" height="126.95" id="sv.edu.udb.www.jobboard.controllers.CompanyController" style="stroke:#A80036;stroke-width:1.2000000000000002;" width="111.2" x="670.44" y="127.025"/><ellipse cx="682.44" cy="139.825" fill="#ADD1B2" rx="8.8" ry="8.8" style="stroke:#A80036;stroke-width:0.8000000000000002;"/><path d="M684.04,137.025 Q684.2025,136.625 684.39,136.425 Q684.5775,136.225 684.79,136.225 Q685.165,136.225 685.4025,136.45 Q685.64,136.675 685.64,137.2 L685.64,138.45 Q685.64,138.975 685.415,139.2 Q685.19,139.425 684.84,139.425 Q684.5275,139.425 684.3275,139.2875 Q684.1275,139.15 684.04,138.7875 Q684.0025,138.5375 683.865,138.4 Q683.615,138.1375 683.165,137.9875 Q682.715,137.825 682.265,137.825 Q681.7025,137.825 681.2275,138.05 Q680.765,138.275 680.4025,138.775 Q680.04,139.275 680.04,139.9625 L680.04,140.7 Q680.04,141.525 680.715,142.075 Q681.39,142.625 682.59,142.625 Q683.3025,142.625 683.8025,142.4625 Q684.09,142.375 684.415,142.0875 Q684.6275,141.925 684.74,141.875 Q684.8525,141.825 684.99,141.825 Q685.2525,141.825 685.44,142.0375 Q685.64,142.2375 685.64,142.525 Q685.64,142.8 685.365,143.125 Q684.965,143.6 684.3275,143.8625 Q683.49,144.225 682.465,144.225 Q681.265,144.225 680.3025,143.75 Q679.5275,143.375 678.9775,142.5625 Q678.44,141.75 678.44,140.7875 L678.44,139.9125 Q678.44,138.9125 678.915,138.0375 Q679.4025,137.1625 680.24,136.7 Q681.09,136.225 682.04,136.225 Q682.615,136.225 683.115,136.425 Q683.615,136.625 684.04,137.025 Z " fill="#000000"/><text fill="#000000" font-family="sans-serif" font-size="9.6" lengthAdjust="spacing" textLength="85.6" x="693.64" y="143.7531">CompanyController</text><line style="stroke:#A80036;stroke-width:1.2000000000000002;" x1="671.24" x2="780.84" y1="152.625" y2="152.625"/><line style="stroke:#A80036;stroke-width:1.2000000000000002;" x1="671.24" x2="780.84" y1="159.025" y2="159.025"/><ellipse cx="679.24" cy="167.825" fill="#84BE84" rx="2.4" ry="2.4" style="stroke:#038048;stroke-width:0.8000000000000002;"/><text fill="#000000" font-family="sans-serif" font-size="8.8" lengthAdjust="spacing" textLength="45.6" x="686.44" y="171.3602">applicants()</text><ellipse cx="679.24" cy="178.8938" fill="#84BE84" rx="2.4" ry="2.4" style="stroke:#038048;stroke-width:0.8000000000000002;"/><text fill="#000000" font-family="sans-serif" font-size="8.8" lengthAdjust="spacing" textLength="54.4" x="686.44" y="182.4289">displayOffer()</text><ellipse cx="679.24" cy="189.9625" fill="#84BE84" rx="2.4" ry="2.4" style="stroke:#038048;stroke-width:0.8000000000000002;"/><text fill="#000000" font-family="sans-serif" font-size="8.8" lengthAdjust="spacing" textLength="41.6" x="686.44" y="193.4977">initBinder()</text><ellipse cx="679.24" cy="201.0313" fill="#84BE84" rx="2.4" ry="2.4" style="stroke:#038048;stroke-width:0.8000000000000002;"/><text fill="#000000" font-family="sans-serif" font-size="8.8" lengthAdjust="spacing" textLength="33.6" x="686.44" y="204.5664">module()</text><ellipse cx="679.24" cy="212.1" fill="#84BE84" rx="2.4" ry="2.4" style="stroke:#038048;stroke-width:0.8000000000000002;"/><text fill="#000000" font-family="sans-serif" font-size="8.8" lengthAdjust="spacing" textLength="30.4" x="686.44" y="215.6352">offers()</text><ellipse cx="679.24" cy="223.1688" fill="#84BE84" rx="2.4" ry="2.4" style="stroke:#038048;stroke-width:0.8000000000000002;"/><text fill="#000000" font-family="sans-serif" font-size="8.8" lengthAdjust="spacing" textLength="30.4" x="686.44" y="226.7039">profile()</text><ellipse cx="679.24" cy="234.2375" fill="#84BE84" rx="2.4" ry="2.4" style="stroke:#038048;stroke-width:0.8000000000000002;"/><text fill="#000000" font-family="sans-serif" font-size="8.8" lengthAdjust="spacing" textLength="54.4" x="686.44" y="237.7727">publishOffer()</text><ellipse cx="679.24" cy="245.3063" fill="#84BE84" rx="2.4" ry="2.4" style="stroke:#038048;stroke-width:0.8000000000000002;"/><text fill="#000000" font-family="sans-serif" font-size="8.8" lengthAdjust="spacing" textLength="64.8" x="686.44" y="248.8414">saveNewOffer()</text><!--MD5=[4672b45b0a0e65596e9ac2bc52483e7d]
class sv.edu.udb.www.jobboard.controllers.HomeController--><rect codeLine="36" fill="#FEFECE" filter="url(#f1w81ak25wg6s2)" height="71.6063" id="sv.edu.udb.www.jobboard.controllers.HomeController" style="stroke:#A80036;stroke-width:1.2000000000000002;" width="96" x="1070.84" y="154.625"/><ellipse cx="1082.84" cy="167.425" fill="#ADD1B2" rx="8.8" ry="8.8" style="stroke:#A80036;stroke-width:0.8000000000000002;"/><path d="M1084.44,164.625 Q1084.6025,164.225 1084.79,164.025 Q1084.9775,163.825 1085.19,163.825 Q1085.565,163.825 1085.8025,164.05 Q1086.04,164.275 1086.04,164.8 L1086.04,166.05 Q1086.04,166.575 1085.815,166.8 Q1085.59,167.025 1085.24,167.025 Q1084.9275,167.025 1084.7275,166.8875 Q1084.5275,166.75 1084.44,166.3875 Q1084.4025,166.1375 1084.265,166 Q1084.015,165.7375 1083.565,165.5875 Q1083.115,165.425 1082.665,165.425 Q1082.1025,165.425 1081.6275,165.65 Q1081.165,165.875 1080.8025,166.375 Q1080.44,166.875 1080.44,167.5625 L1080.44,168.3 Q1080.44,169.125 1081.115,169.675 Q1081.79,170.225 1082.99,170.225 Q1083.7025,170.225 1084.2025,170.0625 Q1084.49,169.975 1084.815,169.6875 Q1085.0275,169.525 1085.14,169.475 Q1085.2525,169.425 1085.39,169.425 Q1085.6525,169.425 1085.84,169.6375 Q1086.04,169.8375 1086.04,170.125 Q1086.04,170.4 1085.765,170.725 Q1085.365,171.2 1084.7275,171.4625 Q1083.89,171.825 1082.865,171.825 Q1081.665,171.825 1080.7025,171.35 Q1079.9275,170.975 1079.3775,170.1625 Q1078.84,169.35 1078.84,168.3875 L1078.84,167.5125 Q1078.84,166.5125 1079.315,165.6375 Q1079.8025,164.7625 1080.64,164.3 Q1081.49,163.825 1082.44,163.825 Q1083.015,163.825 1083.515,164.025 Q1084.015,164.225 1084.44,164.625 Z " fill="#000000"/><text fill="#000000" font-family="sans-serif" font-size="9.6" lengthAdjust="spacing" textLength="70.4" x="1094.04" y="171.3531">HomeController</text><line style="stroke:#A80036;stroke-width:1.2000000000000002;" x1="1071.64" x2="1166.04" y1="180.225" y2="180.225"/><line style="stroke:#A80036;stroke-width:1.2000000000000002;" x1="1071.64" x2="1166.04" y1="186.625" y2="186.625"/><ellipse cx="1079.64" cy="195.425" fill="#84BE84" rx="2.4" ry="2.4" style="stroke:#038048;stroke-width:0.8000000000000002;"/><text fill="#000000" font-family="sans-serif" font-size="8.8" lengthAdjust="spacing" textLength="39.2" x="1086.84" y="198.9602">getIndex()</text><ellipse cx="1079.64" cy="206.4938" fill="#84BE84" rx="2.4" ry="2.4" style="stroke:#038048;stroke-width:0.8000000000000002;"/><text fill="#000000" font-family="sans-serif" font-size="8.8" lengthAdjust="spacing" textLength="20.8" x="1086.84" y="210.0289">mail()</text><ellipse cx="1079.64" cy="217.5625" fill="#84BE84" rx="2.4" ry="2.4" style="stroke:#038048;stroke-width:0.8000000000000002;"/><text fill="#000000" font-family="sans-serif" font-size="8.8" lengthAdjust="spacing" textLength="33.6" x="1086.84" y="221.0977">module()</text><!--MD5=[d715d1a43cecf968d40b2a6707791621]
class sv.edu.udb.www.jobboard.controllers.RegisterController--><rect codeLine="41" fill="#FEFECE" filter="url(#f1w81ak25wg6s2)" height="93.7438" id="sv.edu.udb.www.jobboard.controllers.RegisterController" style="stroke:#A80036;stroke-width:1.2000000000000002;" width="106.4" x="936.04" y="143.825"/><ellipse cx="948.04" cy="156.625" fill="#ADD1B2" rx="8.8" ry="8.8" style="stroke:#A80036;stroke-width:0.8000000000000002;"/><path d="M949.64,153.825 Q949.8025,153.425 949.99,153.225 Q950.1775,153.025 950.39,153.025 Q950.765,153.025 951.0025,153.25 Q951.24,153.475 951.24,154 L951.24,155.25 Q951.24,155.775 951.015,156 Q950.79,156.225 950.44,156.225 Q950.1275,156.225 949.9275,156.0875 Q949.7275,155.95 949.64,155.5875 Q949.6025,155.3375 949.465,155.2 Q949.215,154.9375 948.765,154.7875 Q948.315,154.625 947.865,154.625 Q947.3025,154.625 946.8275,154.85 Q946.365,155.075 946.0025,155.575 Q945.64,156.075 945.64,156.7625 L945.64,157.5 Q945.64,158.325 946.315,158.875 Q946.99,159.425 948.19,159.425 Q948.9025,159.425 949.4025,159.2625 Q949.69,159.175 950.015,158.8875 Q950.2275,158.725 950.34,158.675 Q950.4525,158.625 950.59,158.625 Q950.8525,158.625 951.04,158.8375 Q951.24,159.0375 951.24,159.325 Q951.24,159.6 950.965,159.925 Q950.565,160.4 949.9275,160.6625 Q949.09,161.025 948.065,161.025 Q946.865,161.025 945.9025,160.55 Q945.1275,160.175 944.5775,159.3625 Q944.04,158.55 944.04,157.5875 L944.04,156.7125 Q944.04,155.7125 944.515,154.8375 Q945.0025,153.9625 945.84,153.5 Q946.69,153.025 947.64,153.025 Q948.215,153.025 948.715,153.225 Q949.215,153.425 949.64,153.825 Z " fill="#000000"/><text fill="#000000" font-family="sans-serif" font-size="9.6" lengthAdjust="spacing" textLength="80.8" x="959.24" y="160.5531">RegisterController</text><line style="stroke:#A80036;stroke-width:1.2000000000000002;" x1="936.84" x2="1041.64" y1="169.425" y2="169.425"/><line style="stroke:#A80036;stroke-width:1.2000000000000002;" x1="936.84" x2="1041.64" y1="175.825" y2="175.825"/><ellipse cx="944.84" cy="184.625" fill="#84BE84" rx="2.4" ry="2.4" style="stroke:#038048;stroke-width:0.8000000000000002;"/><text fill="#000000" font-family="sans-serif" font-size="8.8" lengthAdjust="spacing" textLength="41.6" x="952.04" y="188.1602">initBinder()</text><ellipse cx="944.84" cy="195.6938" fill="#84BE84" rx="2.4" ry="2.4" style="stroke:#038048;stroke-width:0.8000000000000002;"/><text fill="#000000" font-family="sans-serif" font-size="8.8" lengthAdjust="spacing" textLength="72" x="952.04" y="199.2289">registerCompany()</text><ellipse cx="944.84" cy="206.7625" fill="#84BE84" rx="2.4" ry="2.4" style="stroke:#038048;stroke-width:0.8000000000000002;"/><text fill="#000000" font-family="sans-serif" font-size="8.8" lengthAdjust="spacing" textLength="84" x="952.04" y="210.2977">registerProfessional()</text><ellipse cx="944.84" cy="217.8313" fill="#84BE84" rx="2.4" ry="2.4" style="stroke:#038048;stroke-width:0.8000000000000002;"/><text fill="#000000" font-family="sans-serif" font-size="8.8" lengthAdjust="spacing" textLength="61.6" x="952.04" y="221.3664">saveCompany()</text><ellipse cx="944.84" cy="228.9" fill="#84BE84" rx="2.4" ry="2.4" style="stroke:#038048;stroke-width:0.8000000000000002;"/><text fill="#000000" font-family="sans-serif" font-size="8.8" lengthAdjust="spacing" textLength="73.6" x="952.04" y="232.4352">saveProfessional()</text><!--MD5=[1a4c945f811d8a1c4fd640ad10e45ddf]
class sv.edu.udb.www.jobboard.controllers.TagController--><rect codeLine="48" fill="#FEFECE" filter="url(#f1w81ak25wg6s2)" height="126.95" id="sv.edu.udb.www.jobboard.controllers.TagController" style="stroke:#A80036;stroke-width:1.2000000000000002;" width="92.8" x="1194.84" y="127.025"/><ellipse cx="1210.08" cy="139.825" fill="#ADD1B2" rx="8.8" ry="8.8" style="stroke:#A80036;stroke-width:0.8000000000000002;"/><path d="M1211.68,137.025 Q1211.8425,136.625 1212.03,136.425 Q1212.2175,136.225 1212.43,136.225 Q1212.805,136.225 1213.0425,136.45 Q1213.28,136.675 1213.28,137.2 L1213.28,138.45 Q1213.28,138.975 1213.055,139.2 Q1212.83,139.425 1212.48,139.425 Q1212.1675,139.425 1211.9675,139.2875 Q1211.7675,139.15 1211.68,138.7875 Q1211.6425,138.5375 1211.505,138.4 Q1211.255,138.1375 1210.805,137.9875 Q1210.355,137.825 1209.905,137.825 Q1209.3425,137.825 1208.8675,138.05 Q1208.405,138.275 1208.0425,138.775 Q1207.68,139.275 1207.68,139.9625 L1207.68,140.7 Q1207.68,141.525 1208.355,142.075 Q1209.03,142.625 1210.23,142.625 Q1210.9425,142.625 1211.4425,142.4625 Q1211.73,142.375 1212.055,142.0875 Q1212.2675,141.925 1212.38,141.875 Q1212.4925,141.825 1212.63,141.825 Q1212.8925,141.825 1213.08,142.0375 Q1213.28,142.2375 1213.28,142.525 Q1213.28,142.8 1213.005,143.125 Q1212.605,143.6 1211.9675,143.8625 Q1211.13,144.225 1210.105,144.225 Q1208.905,144.225 1207.9425,143.75 Q1207.1675,143.375 1206.6175,142.5625 Q1206.08,141.75 1206.08,140.7875 L1206.08,139.9125 Q1206.08,138.9125 1206.555,138.0375 Q1207.0425,137.1625 1207.88,136.7 Q1208.73,136.225 1209.68,136.225 Q1210.255,136.225 1210.755,136.425 Q1211.255,136.625 1211.68,137.025 Z " fill="#000000"/><text fill="#000000" font-family="sans-serif" font-size="9.6" lengthAdjust="spacing" textLength="60" x="1222" y="143.7531">TagController</text><line style="stroke:#A80036;stroke-width:1.2000000000000002;" x1="1195.64" x2="1286.84" y1="152.625" y2="152.625"/><line style="stroke:#A80036;stroke-width:1.2000000000000002;" x1="1195.64" x2="1286.84" y1="159.025" y2="159.025"/><ellipse cx="1203.64" cy="167.825" fill="#84BE84" rx="2.4" ry="2.4" style="stroke:#038048;stroke-width:0.8000000000000002;"/><text fill="#000000" font-family="sans-serif" font-size="8.8" lengthAdjust="spacing" textLength="44" x="1210.84" y="171.3602">deleteTag()</text><ellipse cx="1203.64" cy="178.8938" fill="#84BE84" rx="2.4" ry="2.4" style="stroke:#038048;stroke-width:0.8000000000000002;"/><text fill="#000000" font-family="sans-serif" font-size="8.8" lengthAdjust="spacing" textLength="37.6" x="1210.84" y="182.4289">getTags()</text><ellipse cx="1203.64" cy="189.9625" fill="#84BE84" rx="2.4" ry="2.4" style="stroke:#038048;stroke-width:0.8000000000000002;"/><text fill="#000000" font-family="sans-serif" font-size="8.8" lengthAdjust="spacing" textLength="41.6" x="1210.84" y="193.4977">initBinder()</text><ellipse cx="1203.64" cy="201.0313" fill="#84BE84" rx="2.4" ry="2.4" style="stroke:#038048;stroke-width:0.8000000000000002;"/><text fill="#000000" font-family="sans-serif" font-size="8.8" lengthAdjust="spacing" textLength="33.6" x="1210.84" y="204.5664">module()</text><ellipse cx="1203.64" cy="212.1" fill="#84BE84" rx="2.4" ry="2.4" style="stroke:#038048;stroke-width:0.8000000000000002;"/><text fill="#000000" font-family="sans-serif" font-size="8.8" lengthAdjust="spacing" textLength="38.4" x="1210.84" y="215.6352">newTag()</text><ellipse cx="1203.64" cy="223.1688" fill="#84BE84" rx="2.4" ry="2.4" style="stroke:#038048;stroke-width:0.8000000000000002;"/><text fill="#000000" font-family="sans-serif" font-size="8.8" lengthAdjust="spacing" textLength="40" x="1210.84" y="226.7039">saveTag()</text><ellipse cx="1203.64" cy="234.2375" fill="#84BE84" rx="2.4" ry="2.4" style="stroke:#038048;stroke-width:0.8000000000000002;"/><text fill="#000000" font-family="sans-serif" font-size="8.8" lengthAdjust="spacing" textLength="72" x="1210.84" y="237.7727">saveUpdatedTag()</text><ellipse cx="1203.64" cy="245.3063" fill="#84BE84" rx="2.4" ry="2.4" style="stroke:#038048;stroke-width:0.8000000000000002;"/><text fill="#000000" font-family="sans-serif" font-size="8.8" lengthAdjust="spacing" textLength="47.2" x="1210.84" y="248.8414">updateTag()</text><!--MD5=[24e43b00fb466995d8390c25655ca5fc]
class sv.edu.udb.www.jobboard.controllers.LoginController--><rect codeLine="58" fill="#FEFECE" filter="url(#f1w81ak25wg6s2)" height="49.4688" id="sv.edu.udb.www.jobboard.controllers.LoginController" style="stroke:#A80036;stroke-width:1.2000000000000002;" width="93.6" x="388.84" y="165.825"/><ellipse cx="400.84" cy="178.625" fill="#ADD1B2" rx="8.8" ry="8.8" style="stroke:#A80036;stroke-width:0.8000000000000002;"/><path d="M402.44,175.825 Q402.6025,175.425 402.79,175.225 Q402.9775,175.025 403.19,175.025 Q403.565,175.025 403.8025,175.25 Q404.04,175.475 404.04,176 L404.04,177.25 Q404.04,177.775 403.815,178 Q403.59,178.225 403.24,178.225 Q402.9275,178.225 402.7275,178.0875 Q402.5275,177.95 402.44,177.5875 Q402.4025,177.3375 402.265,177.2 Q402.015,176.9375 401.565,176.7875 Q401.115,176.625 400.665,176.625 Q400.1025,176.625 399.6275,176.85 Q399.165,177.075 398.8025,177.575 Q398.44,178.075 398.44,178.7625 L398.44,179.5 Q398.44,180.325 399.115,180.875 Q399.79,181.425 400.99,181.425 Q401.7025,181.425 402.2025,181.2625 Q402.49,181.175 402.815,180.8875 Q403.0275,180.725 403.14,180.675 Q403.2525,180.625 403.39,180.625 Q403.6525,180.625 403.84,180.8375 Q404.04,181.0375 404.04,181.325 Q404.04,181.6 403.765,181.925 Q403.365,182.4 402.7275,182.6625 Q401.89,183.025 400.865,183.025 Q399.665,183.025 398.7025,182.55 Q397.9275,182.175 397.3775,181.3625 Q396.84,180.55 396.84,179.5875 L396.84,178.7125 Q396.84,177.7125 397.315,176.8375 Q397.8025,175.9625 398.64,175.5 Q399.49,175.025 400.44,175.025 Q401.015,175.025 401.515,175.225 Q402.015,175.425 402.44,175.825 Z " fill="#000000"/><text fill="#000000" font-family="sans-serif" font-size="9.6" lengthAdjust="spacing" textLength="68" x="412.04" y="182.5531">LoginController</text><line style="stroke:#A80036;stroke-width:1.2000000000000002;" x1="389.64" x2="481.64" y1="191.425" y2="191.425"/><line style="stroke:#A80036;stroke-width:1.2000000000000002;" x1="389.64" x2="481.64" y1="197.825" y2="197.825"/><ellipse cx="397.64" cy="206.625" fill="#84BE84" rx="2.4" ry="2.4" style="stroke:#038048;stroke-width:0.8000000000000002;"/><text fill="#000000" font-family="sans-serif" font-size="8.8" lengthAdjust="spacing" textLength="24" x="404.84" y="210.1602">login()</text><!--MD5=[44b6b9aabe5fd37bddc1c969258f4df8]
class sv.edu.udb.www.jobboard.controllers.ProfessionalController--><rect codeLine="61" fill="#FEFECE" filter="url(#f1w81ak25wg6s2)" height="171.225" id="sv.edu.udb.www.jobboard.controllers.ProfessionalController" style="stroke:#A80036;stroke-width:1.2000000000000002;" width="131.2" x="510.84" y="105.025"/><ellipse cx="525.72" cy="117.825" fill="#ADD1B2" rx="8.8" ry="8.8" style="stroke:#A80036;stroke-width:0.8000000000000002;"/><path d="M527.32,115.025 Q527.4825,114.625 527.67,114.425 Q527.8575,114.225 528.07,114.225 Q528.445,114.225 528.6825,114.45 Q528.92,114.675 528.92,115.2 L528.92,116.45 Q528.92,116.975 528.695,117.2 Q528.47,117.425 528.12,117.425 Q527.8075,117.425 527.6075,117.2875 Q527.4075,117.15 527.32,116.7875 Q527.2825,116.5375 527.145,116.4 Q526.895,116.1375 526.445,115.9875 Q525.995,115.825 525.545,115.825 Q524.9825,115.825 524.5075,116.05 Q524.045,116.275 523.6825,116.775 Q523.32,117.275 523.32,117.9625 L523.32,118.7 Q523.32,119.525 523.995,120.075 Q524.67,120.625 525.87,120.625 Q526.5825,120.625 527.0825,120.4625 Q527.37,120.375 527.695,120.0875 Q527.9075,119.925 528.02,119.875 Q528.1325,119.825 528.27,119.825 Q528.5325,119.825 528.72,120.0375 Q528.92,120.2375 528.92,120.525 Q528.92,120.8 528.645,121.125 Q528.245,121.6 527.6075,121.8625 Q526.77,122.225 525.745,122.225 Q524.545,122.225 523.5825,121.75 Q522.8075,121.375 522.2575,120.5625 Q521.72,119.75 521.72,118.7875 L521.72,117.9125 Q521.72,116.9125 522.195,116.0375 Q522.6825,115.1625 523.52,114.7 Q524.37,114.225 525.32,114.225 Q525.895,114.225 526.395,114.425 Q526.895,114.625 527.32,115.025 Z " fill="#000000"/><text fill="#000000" font-family="sans-serif" font-size="9.6" lengthAdjust="spacing" textLength="99.2" x="537.56" y="121.7531">ProfessionalController</text><line style="stroke:#A80036;stroke-width:1.2000000000000002;" x1="511.64" x2="641.24" y1="130.625" y2="130.625"/><line style="stroke:#A80036;stroke-width:1.2000000000000002;" x1="511.64" x2="641.24" y1="137.025" y2="137.025"/><ellipse cx="519.64" cy="145.825" fill="#84BE84" rx="2.4" ry="2.4" style="stroke:#038048;stroke-width:0.8000000000000002;"/><text fill="#000000" font-family="sans-serif" font-size="8.8" lengthAdjust="spacing" textLength="56" x="526.84" y="149.3602">displayApply()</text><ellipse cx="519.64" cy="156.8938" fill="#84BE84" rx="2.4" ry="2.4" style="stroke:#038048;stroke-width:0.8000000000000002;"/><text fill="#000000" font-family="sans-serif" font-size="8.8" lengthAdjust="spacing" textLength="68" x="526.84" y="160.4289">displayJobOffer()</text><ellipse cx="519.64" cy="167.9625" fill="#84BE84" rx="2.4" ry="2.4" style="stroke:#038048;stroke-width:0.8000000000000002;"/><text fill="#000000" font-family="sans-serif" font-size="8.8" lengthAdjust="spacing" textLength="65.6" x="526.84" y="171.4977">getApplications()</text><ellipse cx="519.64" cy="179.0313" fill="#84BE84" rx="2.4" ry="2.4" style="stroke:#038048;stroke-width:0.8000000000000002;"/><text fill="#000000" font-family="sans-serif" font-size="8.8" lengthAdjust="spacing" textLength="52.8" x="526.84" y="182.5664">getJobOffer()</text><ellipse cx="519.64" cy="190.1" fill="#84BE84" rx="2.4" ry="2.4" style="stroke:#038048;stroke-width:0.8000000000000002;"/><text fill="#000000" font-family="sans-serif" font-size="8.8" lengthAdjust="spacing" textLength="42.4" x="526.84" y="193.6352">getProfile()</text><ellipse cx="519.64" cy="201.1688" fill="#84BE84" rx="2.4" ry="2.4" style="stroke:#038048;stroke-width:0.8000000000000002;"/><text fill="#000000" font-family="sans-serif" font-size="8.8" lengthAdjust="spacing" textLength="49.6" x="526.84" y="204.7039">getResume()</text><ellipse cx="519.64" cy="212.2375" fill="#84BE84" rx="2.4" ry="2.4" style="stroke:#038048;stroke-width:0.8000000000000002;"/><text fill="#000000" font-family="sans-serif" font-size="8.8" lengthAdjust="spacing" textLength="41.6" x="526.84" y="215.7727">initBinder()</text><ellipse cx="519.64" cy="223.3063" fill="#84BE84" rx="2.4" ry="2.4" style="stroke:#038048;stroke-width:0.8000000000000002;"/><text fill="#000000" font-family="sans-serif" font-size="8.8" lengthAdjust="spacing" textLength="33.6" x="526.84" y="226.8414">module()</text><ellipse cx="519.64" cy="234.375" fill="#84BE84" rx="2.4" ry="2.4" style="stroke:#038048;stroke-width:0.8000000000000002;"/><text fill="#000000" font-family="sans-serif" font-size="8.8" lengthAdjust="spacing" textLength="73.6" x="526.84" y="237.9102">saveProfessional()</text><ellipse cx="519.64" cy="245.4438" fill="#84BE84" rx="2.4" ry="2.4" style="stroke:#038048;stroke-width:0.8000000000000002;"/><text fill="#000000" font-family="sans-serif" font-size="8.8" lengthAdjust="spacing" textLength="78.4" x="526.84" y="248.9789">saveProfessional1()</text><ellipse cx="519.64" cy="256.5125" fill="#84BE84" rx="2.4" ry="2.4" style="stroke:#038048;stroke-width:0.8000000000000002;"/><text fill="#000000" font-family="sans-serif" font-size="8.8" lengthAdjust="spacing" textLength="105.6" x="526.84" y="260.0477">saveUpdatedProfessional()</text><ellipse cx="519.64" cy="267.5813" fill="#84BE84" rx="2.4" ry="2.4" style="stroke:#038048;stroke-width:0.8000000000000002;"/><text fill="#000000" font-family="sans-serif" font-size="8.8" lengthAdjust="spacing" textLength="110.4" x="526.84" y="271.1164">saveUpdatedProfessional1()</text><!--MD5=[69cae4b7381b403f09c62526c22c039f]
class sv.edu.udb.www.jobboard.services.AdminService--><rect fill="#FEFECE" filter="url(#f1w81ak25wg6s2)" height="38.4" id="sv.edu.udb.www.jobboard.services.AdminService" style="stroke:#A80036;stroke-width:1.2000000000000002;" width="85.6" x="294.44" y="377.025"/><ellipse cx="306.44" cy="389.825" fill="#ADD1B2" rx="8.8" ry="8.8" style="stroke:#A80036;stroke-width:0.8000000000000002;"/><path d="M308.04,387.025 Q308.2025,386.625 308.39,386.425 Q308.5775,386.225 308.79,386.225 Q309.165,386.225 309.4025,386.45 Q309.64,386.675 309.64,387.2 L309.64,388.45 Q309.64,388.975 309.415,389.2 Q309.19,389.425 308.84,389.425 Q308.5275,389.425 308.3275,389.2875 Q308.1275,389.15 308.04,388.7875 Q308.0025,388.5375 307.865,388.4 Q307.615,388.1375 307.165,387.9875 Q306.715,387.825 306.265,387.825 Q305.7025,387.825 305.2275,388.05 Q304.765,388.275 304.4025,388.775 Q304.04,389.275 304.04,389.9625 L304.04,390.7 Q304.04,391.525 304.715,392.075 Q305.39,392.625 306.59,392.625 Q307.3025,392.625 307.8025,392.4625 Q308.09,392.375 308.415,392.0875 Q308.6275,391.925 308.74,391.875 Q308.8525,391.825 308.99,391.825 Q309.2525,391.825 309.44,392.0375 Q309.64,392.2375 309.64,392.525 Q309.64,392.8 309.365,393.125 Q308.965,393.6 308.3275,393.8625 Q307.49,394.225 306.465,394.225 Q305.265,394.225 304.3025,393.75 Q303.5275,393.375 302.9775,392.5625 Q302.44,391.75 302.44,390.7875 L302.44,389.9125 Q302.44,388.9125 302.915,388.0375 Q303.4025,387.1625 304.24,386.7 Q305.09,386.225 306.04,386.225 Q306.615,386.225 307.115,386.425 Q307.615,386.625 308.04,387.025 Z " fill="#000000"/><text fill="#000000" font-family="sans-serif" font-size="9.6" lengthAdjust="spacing" textLength="60" x="317.64" y="393.7531">AdminService</text><line style="stroke:#A80036;stroke-width:1.2000000000000002;" x1="295.24" x2="379.24" y1="402.625" y2="402.625"/><line style="stroke:#A80036;stroke-width:1.2000000000000002;" x1="295.24" x2="379.24" y1="409.025" y2="409.025"/><!--MD5=[b26c96b97d9dfaa73cf73cd35681903d]
class sv.edu.udb.www.jobboard.services.CompanyService--><rect fill="#FEFECE" filter="url(#f1w81ak25wg6s2)" height="38.4" id="sv.edu.udb.www.jobboard.services.CompanyService" style="stroke:#A80036;stroke-width:1.2000000000000002;" width="100" x="550.44" y="377.025"/><ellipse cx="562.44" cy="389.825" fill="#ADD1B2" rx="8.8" ry="8.8" style="stroke:#A80036;stroke-width:0.8000000000000002;"/><path d="M564.04,387.025 Q564.2025,386.625 564.39,386.425 Q564.5775,386.225 564.79,386.225 Q565.165,386.225 565.4025,386.45 Q565.64,386.675 565.64,387.2 L565.64,388.45 Q565.64,388.975 565.415,389.2 Q565.19,389.425 564.84,389.425 Q564.5275,389.425 564.3275,389.2875 Q564.1275,389.15 564.04,388.7875 Q564.0025,388.5375 563.865,388.4 Q563.615,388.1375 563.165,387.9875 Q562.715,387.825 562.265,387.825 Q561.7025,387.825 561.2275,388.05 Q560.765,388.275 560.4025,388.775 Q560.04,389.275 560.04,389.9625 L560.04,390.7 Q560.04,391.525 560.715,392.075 Q561.39,392.625 562.59,392.625 Q563.3025,392.625 563.8025,392.4625 Q564.09,392.375 564.415,392.0875 Q564.6275,391.925 564.74,391.875 Q564.8525,391.825 564.99,391.825 Q565.2525,391.825 565.44,392.0375 Q565.64,392.2375 565.64,392.525 Q565.64,392.8 565.365,393.125 Q564.965,393.6 564.3275,393.8625 Q563.49,394.225 562.465,394.225 Q561.265,394.225 560.3025,393.75 Q559.5275,393.375 558.9775,392.5625 Q558.44,391.75 558.44,390.7875 L558.44,389.9125 Q558.44,388.9125 558.915,388.0375 Q559.4025,387.1625 560.24,386.7 Q561.09,386.225 562.04,386.225 Q562.615,386.225 563.115,386.425 Q563.615,386.625 564.04,387.025 Z " fill="#000000"/><text fill="#000000" font-family="sans-serif" font-size="9.6" lengthAdjust="spacing" textLength="74.4" x="573.64" y="393.7531">CompanyService</text><line style="stroke:#A80036;stroke-width:1.2000000000000002;" x1="551.24" x2="649.64" y1="402.625" y2="402.625"/><line style="stroke:#A80036;stroke-width:1.2000000000000002;" x1="551.24" x2="649.64" y1="409.025" y2="409.025"/><!--MD5=[b0fc0c0a08b8bcd92da0928a4b3be80a]
class sv.edu.udb.www.jobboard.services.ProfessionalService--><rect fill="#FEFECE" filter="url(#f1w81ak25wg6s2)" height="38.4" id="sv.edu.udb.www.jobboard.services.ProfessionalService" style="stroke:#A80036;stroke-width:1.2000000000000002;" width="113.6" x="408.44" y="377.025"/><ellipse cx="420.44" cy="389.825" fill="#ADD1B2" rx="8.8" ry="8.8" style="stroke:#A80036;stroke-width:0.8000000000000002;"/><path d="M422.04,387.025 Q422.2025,386.625 422.39,386.425 Q422.5775,386.225 422.79,386.225 Q423.165,386.225 423.4025,386.45 Q423.64,386.675 423.64,387.2 L423.64,388.45 Q423.64,388.975 423.415,389.2 Q423.19,389.425 422.84,389.425 Q422.5275,389.425 422.3275,389.2875 Q422.1275,389.15 422.04,388.7875 Q422.0025,388.5375 421.865,388.4 Q421.615,388.1375 421.165,387.9875 Q420.715,387.825 420.265,387.825 Q419.7025,387.825 419.2275,388.05 Q418.765,388.275 418.4025,388.775 Q418.04,389.275 418.04,389.9625 L418.04,390.7 Q418.04,391.525 418.715,392.075 Q419.39,392.625 420.59,392.625 Q421.3025,392.625 421.8025,392.4625 Q422.09,392.375 422.415,392.0875 Q422.6275,391.925 422.74,391.875 Q422.8525,391.825 422.99,391.825 Q423.2525,391.825 423.44,392.0375 Q423.64,392.2375 423.64,392.525 Q423.64,392.8 423.365,393.125 Q422.965,393.6 422.3275,393.8625 Q421.49,394.225 420.465,394.225 Q419.265,394.225 418.3025,393.75 Q417.5275,393.375 416.9775,392.5625 Q416.44,391.75 416.44,390.7875 L416.44,389.9125 Q416.44,388.9125 416.915,388.0375 Q417.4025,387.1625 418.24,386.7 Q419.09,386.225 420.04,386.225 Q420.615,386.225 421.115,386.425 Q421.615,386.625 422.04,387.025 Z " fill="#000000"/><text fill="#000000" font-family="sans-serif" font-size="9.6" lengthAdjust="spacing" textLength="88" x="431.64" y="393.7531">ProfessionalService</text><line style="stroke:#A80036;stroke-width:1.2000000000000002;" x1="409.24" x2="521.24" y1="402.625" y2="402.625"/><line style="stroke:#A80036;stroke-width:1.2000000000000002;" x1="409.24" x2="521.24" y1="409.025" y2="409.025"/><!--MD5=[2e526437740008c39c583cd5a4ef789a]
class sv.edu.udb.www.jobboard.services.AreaService--><rect fill="#FEFECE" filter="url(#f1w81ak25wg6s2)" height="38.4" id="sv.edu.udb.www.jobboard.services.AreaService" style="stroke:#A80036;stroke-width:1.2000000000000002;" width="77.6" x="801.64" y="377.025"/><ellipse cx="813.64" cy="389.825" fill="#ADD1B2" rx="8.8" ry="8.8" style="stroke:#A80036;stroke-width:0.8000000000000002;"/><path d="M815.24,387.025 Q815.4025,386.625 815.59,386.425 Q815.7775,386.225 815.99,386.225 Q816.365,386.225 816.6025,386.45 Q816.84,386.675 816.84,387.2 L816.84,388.45 Q816.84,388.975 816.615,389.2 Q816.39,389.425 816.04,389.425 Q815.7275,389.425 815.5275,389.2875 Q815.3275,389.15 815.24,388.7875 Q815.2025,388.5375 815.065,388.4 Q814.815,388.1375 814.365,387.9875 Q813.915,387.825 813.465,387.825 Q812.9025,387.825 812.4275,388.05 Q811.965,388.275 811.6025,388.775 Q811.24,389.275 811.24,389.9625 L811.24,390.7 Q811.24,391.525 811.915,392.075 Q812.59,392.625 813.79,392.625 Q814.5025,392.625 815.0025,392.4625 Q815.29,392.375 815.615,392.0875 Q815.8275,391.925 815.94,391.875 Q816.0525,391.825 816.19,391.825 Q816.4525,391.825 816.64,392.0375 Q816.84,392.2375 816.84,392.525 Q816.84,392.8 816.565,393.125 Q816.165,393.6 815.5275,393.8625 Q814.69,394.225 813.665,394.225 Q812.465,394.225 811.5025,393.75 Q810.7275,393.375 810.1775,392.5625 Q809.64,391.75 809.64,390.7875 L809.64,389.9125 Q809.64,388.9125 810.115,388.0375 Q810.6025,387.1625 811.44,386.7 Q812.29,386.225 813.24,386.225 Q813.815,386.225 814.315,386.425 Q814.815,386.625 815.24,387.025 Z " fill="#000000"/><text fill="#000000" font-family="sans-serif" font-size="9.6" lengthAdjust="spacing" textLength="52" x="824.84" y="393.7531">AreaService</text><line style="stroke:#A80036;stroke-width:1.2000000000000002;" x1="802.44" x2="878.44" y1="402.625" y2="402.625"/><line style="stroke:#A80036;stroke-width:1.2000000000000002;" x1="802.44" x2="878.44" y1="409.025" y2="409.025"/><!--MD5=[fcac9230ad108dd1ce78be60ff0a2813]
class sv.edu.udb.www.jobboard.services.JobOfferService--><rect fill="#FEFECE" filter="url(#f1w81ak25wg6s2)" height="38.4" id="sv.edu.udb.www.jobboard.services.JobOfferService" style="stroke:#A80036;stroke-width:1.2000000000000002;" width="94.4" x="678.84" y="377.025"/><ellipse cx="690.84" cy="389.825" fill="#ADD1B2" rx="8.8" ry="8.8" style="stroke:#A80036;stroke-width:0.8000000000000002;"/><path d="M692.44,387.025 Q692.6025,386.625 692.79,386.425 Q692.9775,386.225 693.19,386.225 Q693.565,386.225 693.8025,386.45 Q694.04,386.675 694.04,387.2 L694.04,388.45 Q694.04,388.975 693.815,389.2 Q693.59,389.425 693.24,389.425 Q692.9275,389.425 692.7275,389.2875 Q692.5275,389.15 692.44,388.7875 Q692.4025,388.5375 692.265,388.4 Q692.015,388.1375 691.565,387.9875 Q691.115,387.825 690.665,387.825 Q690.1025,387.825 689.6275,388.05 Q689.165,388.275 688.8025,388.775 Q688.44,389.275 688.44,389.9625 L688.44,390.7 Q688.44,391.525 689.115,392.075 Q689.79,392.625 690.99,392.625 Q691.7025,392.625 692.2025,392.4625 Q692.49,392.375 692.815,392.0875 Q693.0275,391.925 693.14,391.875 Q693.2525,391.825 693.39,391.825 Q693.6525,391.825 693.84,392.0375 Q694.04,392.2375 694.04,392.525 Q694.04,392.8 693.765,393.125 Q693.365,393.6 692.7275,393.8625 Q691.89,394.225 690.865,394.225 Q689.665,394.225 688.7025,393.75 Q687.9275,393.375 687.3775,392.5625 Q686.84,391.75 686.84,390.7875 L686.84,389.9125 Q686.84,388.9125 687.315,388.0375 Q687.8025,387.1625 688.64,386.7 Q689.49,386.225 690.44,386.225 Q691.015,386.225 691.515,386.425 Q692.015,386.625 692.44,387.025 Z " fill="#000000"/><text fill="#000000" font-family="sans-serif" font-size="9.6" lengthAdjust="spacing" textLength="68.8" x="702.04" y="393.7531">JobOfferService</text><line style="stroke:#A80036;stroke-width:1.2000000000000002;" x1="679.64" x2="772.44" y1="402.625" y2="402.625"/><line style="stroke:#A80036;stroke-width:1.2000000000000002;" x1="679.64" x2="772.44" y1="409.025" y2="409.025"/><!--MD5=[95bbe3875bef4646f637514998182383]
class sv.edu.udb.www.jobboard.services.EmailService--><rect fill="#FEFECE" filter="url(#f1w81ak25wg6s2)" height="38.4" id="sv.edu.udb.www.jobboard.services.EmailService" style="stroke:#A80036;stroke-width:1.2000000000000002;" width="83.2" x="1027.64" y="377.025"/><ellipse cx="1039.64" cy="389.825" fill="#ADD1B2" rx="8.8" ry="8.8" style="stroke:#A80036;stroke-width:0.8000000000000002;"/><path d="M1041.24,387.025 Q1041.4025,386.625 1041.59,386.425 Q1041.7775,386.225 1041.99,386.225 Q1042.365,386.225 1042.6025,386.45 Q1042.84,386.675 1042.84,387.2 L1042.84,388.45 Q1042.84,388.975 1042.615,389.2 Q1042.39,389.425 1042.04,389.425 Q1041.7275,389.425 1041.5275,389.2875 Q1041.3275,389.15 1041.24,388.7875 Q1041.2025,388.5375 1041.065,388.4 Q1040.815,388.1375 1040.365,387.9875 Q1039.915,387.825 1039.465,387.825 Q1038.9025,387.825 1038.4275,388.05 Q1037.965,388.275 1037.6025,388.775 Q1037.24,389.275 1037.24,389.9625 L1037.24,390.7 Q1037.24,391.525 1037.915,392.075 Q1038.59,392.625 1039.79,392.625 Q1040.5025,392.625 1041.0025,392.4625 Q1041.29,392.375 1041.615,392.0875 Q1041.8275,391.925 1041.94,391.875 Q1042.0525,391.825 1042.19,391.825 Q1042.4525,391.825 1042.64,392.0375 Q1042.84,392.2375 1042.84,392.525 Q1042.84,392.8 1042.565,393.125 Q1042.165,393.6 1041.5275,393.8625 Q1040.69,394.225 1039.665,394.225 Q1038.465,394.225 1037.5025,393.75 Q1036.7275,393.375 1036.1775,392.5625 Q1035.64,391.75 1035.64,390.7875 L1035.64,389.9125 Q1035.64,388.9125 1036.115,388.0375 Q1036.6025,387.1625 1037.44,386.7 Q1038.29,386.225 1039.24,386.225 Q1039.815,386.225 1040.315,386.425 Q1040.815,386.625 1041.24,387.025 Z " fill="#000000"/><text fill="#000000" font-family="sans-serif" font-size="9.6" lengthAdjust="spacing" textLength="57.6" x="1050.84" y="393.7531">EmailService</text><line style="stroke:#A80036;stroke-width:1.2000000000000002;" x1="1028.44" x2="1110.04" y1="402.625" y2="402.625"/><line style="stroke:#A80036;stroke-width:1.2000000000000002;" x1="1028.44" x2="1110.04" y1="409.025" y2="409.025"/><!--MD5=[1e877d1f54636533bc01fc52be47dc85]
class sv.edu.udb.www.jobboard.services.AccountService--><rect fill="#FEFECE" filter="url(#f1w81ak25wg6s2)" height="38.4" id="sv.edu.udb.www.jobboard.services.AccountService" style="stroke:#A80036;stroke-width:1.2000000000000002;" width="92" x="907.24" y="377.025"/><ellipse cx="919.24" cy="389.825" fill="#ADD1B2" rx="8.8" ry="8.8" style="stroke:#A80036;stroke-width:0.8000000000000002;"/><path d="M920.84,387.025 Q921.0025,386.625 921.19,386.425 Q921.3775,386.225 921.59,386.225 Q921.965,386.225 922.2025,386.45 Q922.44,386.675 922.44,387.2 L922.44,388.45 Q922.44,388.975 922.215,389.2 Q921.99,389.425 921.64,389.425 Q921.3275,389.425 921.1275,389.2875 Q920.9275,389.15 920.84,388.7875 Q920.8025,388.5375 920.665,388.4 Q920.415,388.1375 919.965,387.9875 Q919.515,387.825 919.065,387.825 Q918.5025,387.825 918.0275,388.05 Q917.565,388.275 917.2025,388.775 Q916.84,389.275 916.84,389.9625 L916.84,390.7 Q916.84,391.525 917.515,392.075 Q918.19,392.625 919.39,392.625 Q920.1025,392.625 920.6025,392.4625 Q920.89,392.375 921.215,392.0875 Q921.4275,391.925 921.54,391.875 Q921.6525,391.825 921.79,391.825 Q922.0525,391.825 922.24,392.0375 Q922.44,392.2375 922.44,392.525 Q922.44,392.8 922.165,393.125 Q921.765,393.6 921.1275,393.8625 Q920.29,394.225 919.265,394.225 Q918.065,394.225 917.1025,393.75 Q916.3275,393.375 915.7775,392.5625 Q915.24,391.75 915.24,390.7875 L915.24,389.9125 Q915.24,388.9125 915.715,388.0375 Q916.2025,387.1625 917.04,386.7 Q917.89,386.225 918.84,386.225 Q919.415,386.225 919.915,386.425 Q920.415,386.625 920.84,387.025 Z " fill="#000000"/><text fill="#000000" font-family="sans-serif" font-size="9.6" lengthAdjust="spacing" textLength="66.4" x="930.44" y="393.7531">AccountService</text><line style="stroke:#A80036;stroke-width:1.2000000000000002;" x1="908.04" x2="998.44" y1="402.625" y2="402.625"/><line style="stroke:#A80036;stroke-width:1.2000000000000002;" x1="908.04" x2="998.44" y1="409.025" y2="409.025"/><!--MD5=[8a7fe57459b09a38dc9c1b896e265cd9]
class sv.edu.udb.www.jobboard.services.TagService--><rect fill="#FEFECE" filter="url(#f1w81ak25wg6s2)" height="38.4" id="sv.edu.udb.www.jobboard.services.TagService" style="stroke:#A80036;stroke-width:1.2000000000000002;" width="74.4" x="1139.24" y="377.025"/><ellipse cx="1151.24" cy="389.825" fill="#ADD1B2" rx="8.8" ry="8.8" style="stroke:#A80036;stroke-width:0.8000000000000002;"/><path d="M1152.84,387.025 Q1153.0025,386.625 1153.19,386.425 Q1153.3775,386.225 1153.59,386.225 Q1153.965,386.225 1154.2025,386.45 Q1154.44,386.675 1154.44,387.2 L1154.44,388.45 Q1154.44,388.975 1154.215,389.2 Q1153.99,389.425 1153.64,389.425 Q1153.3275,389.425 1153.1275,389.2875 Q1152.9275,389.15 1152.84,388.7875 Q1152.8025,388.5375 1152.665,388.4 Q1152.415,388.1375 1151.965,387.9875 Q1151.515,387.825 1151.065,387.825 Q1150.5025,387.825 1150.0275,388.05 Q1149.565,388.275 1149.2025,388.775 Q1148.84,389.275 1148.84,389.9625 L1148.84,390.7 Q1148.84,391.525 1149.515,392.075 Q1150.19,392.625 1151.39,392.625 Q1152.1025,392.625 1152.6025,392.4625 Q1152.89,392.375 1153.215,392.0875 Q1153.4275,391.925 1153.54,391.875 Q1153.6525,391.825 1153.79,391.825 Q1154.0525,391.825 1154.24,392.0375 Q1154.44,392.2375 1154.44,392.525 Q1154.44,392.8 1154.165,393.125 Q1153.765,393.6 1153.1275,393.8625 Q1152.29,394.225 1151.265,394.225 Q1150.065,394.225 1149.1025,393.75 Q1148.3275,393.375 1147.7775,392.5625 Q1147.24,391.75 1147.24,390.7875 L1147.24,389.9125 Q1147.24,388.9125 1147.715,388.0375 Q1148.2025,387.1625 1149.04,386.7 Q1149.89,386.225 1150.84,386.225 Q1151.415,386.225 1151.915,386.425 Q1152.415,386.625 1152.84,387.025 Z " fill="#000000"/><text fill="#000000" font-family="sans-serif" font-size="9.6" lengthAdjust="spacing" textLength="48.8" x="1162.44" y="393.7531">TagService</text><line style="stroke:#A80036;stroke-width:1.2000000000000002;" x1="1140.04" x2="1212.84" y1="402.625" y2="402.625"/><line style="stroke:#A80036;stroke-width:1.2000000000000002;" x1="1140.04" x2="1212.84" y1="409.025" y2="409.025"/><!--MD5=[3821c07227212a0d8fc9e4cb3d334665]
reverse link sv.edu.udb.www.jobboard.controllers.AdminController to sv.edu.udb.www.jobboard.services.AdminService--><path codeLine="79" d="M247.568,202.385 C157.04,221.129 4.8,264.361 62.04,335.425 C90.72,371.033 224.344,386.633 294.288,392.457 " fill="none" id="sv.edu.udb.www.jobboard.controllers.AdminController-backto-sv.edu.udb.www.jobboard.services.AdminService" style="stroke:#A80036;stroke-width:0.8000000000000002;"/><polygon fill="#FFFFFF" points="258.016,200.273,252.6755,198.0915,248.6077,202.1821,253.9482,204.3636,258.016,200.273" style="stroke:#A80036;stroke-width:0.8000000000000002;"/><text fill="#000000" font-family="sans-serif" font-size="10.4" lengthAdjust="spacing" textLength="61.6" x="62.84" y="332.6211">adminService</text><!--MD5=[b32f23a3544a2d89ee74e45c9563d954]
reverse link sv.edu.udb.www.jobboard.controllers.AdminController to sv.edu.udb.www.jobboard.services.CompanyService--><path codeLine="80" d="M285.792,264.905 C282.424,290.345 284.976,317.057 302.84,335.425 C311.864,344.697 523.528,337.273 535.64,341.825 C554.776,349.009 572.36,364.369 584.368,376.809 " fill="none" id="sv.edu.udb.www.jobboard.controllers.AdminController-backto-sv.edu.udb.www.jobboard.services.CompanyService" style="stroke:#A80036;stroke-width:0.8000000000000002;"/><polygon fill="#FFFFFF" points="287.504,254.489,283.5706,258.709,285.9531,263.9629,289.8865,259.7429,287.504,254.489" style="stroke:#A80036;stroke-width:0.8000000000000002;"/><text fill="#000000" font-family="sans-serif" font-size="10.4" lengthAdjust="spacing" textLength="76" x="303.64" y="332.6211">companyService</text><!--MD5=[c75a4a714a165dd7daebf5d996ef8d20]
reverse link sv.edu.udb.www.jobboard.controllers.AdminController to sv.edu.udb.www.jobboard.services.ProfessionalService--><path codeLine="81" d="M248.216,217.361 C189.624,245.697 115.688,292.737 157.24,335.425 C166.416,344.857 381.616,337.481 394.04,341.825 C414.488,348.969 433.864,364.329 447.232,376.785 " fill="none" id="sv.edu.udb.www.jobboard.controllers.AdminController-backto-sv.edu.udb.www.jobboard.services.ProfessionalService" style="stroke:#A80036;stroke-width:0.8000000000000002;"/><polygon fill="#FFFFFF" points="257.832,212.809,252.1245,211.9698,249.1546,216.9155,254.8621,217.7547,257.832,212.809" style="stroke:#A80036;stroke-width:0.8000000000000002;"/><text fill="#000000" font-family="sans-serif" font-size="10.4" lengthAdjust="spacing" textLength="88.8" x="158.04" y="332.6211">professionalService</text><!--MD5=[d0e8e099e89c6ef3e7865010f847fd86]
reverse link sv.edu.udb.www.jobboard.controllers.AreaController to sv.edu.udb.www.jobboard.services.AreaService--><path codeLine="82" d="M885.664,264.761 C890.408,287.721 891.808,312.929 884.44,335.425 C879.336,351.017 868.472,365.905 858.808,376.953 " fill="none" id="sv.edu.udb.www.jobboard.controllers.AreaController-backto-sv.edu.udb.www.jobboard.services.AreaService" style="stroke:#A80036;stroke-width:0.8000000000000002;"/><polygon fill="#FFFFFF" points="883.264,254.385,881.2271,259.7823,885.4257,263.7384,887.4627,258.3411,883.264,254.385" style="stroke:#A80036;stroke-width:0.8000000000000002;"/><text fill="#000000" font-family="sans-serif" font-size="10.4" lengthAdjust="spacing" textLength="53.6" x="887.64" y="332.6211">areaService</text><!--MD5=[0a26a247fab9629c86e424def9e9d3e8]
reverse link sv.edu.udb.www.jobboard.controllers.CompanyController to sv.edu.udb.www.jobboard.services.AreaService--><path codeLine="83" d="M766.52,263.609 C789.208,304.065 815.736,351.369 830.032,376.865 " fill="none" id="sv.edu.udb.www.jobboard.controllers.CompanyController-backto-sv.edu.udb.www.jobboard.services.AreaService" style="stroke:#A80036;stroke-width:0.8000000000000002;"/><polygon fill="#FFFFFF" points="761.296,254.297,760.8513,260.0487,765.9895,262.6714,766.4342,256.9197,761.296,254.297" style="stroke:#A80036;stroke-width:0.8000000000000002;"/><text fill="#000000" font-family="sans-serif" font-size="10.4" lengthAdjust="spacing" textLength="53.6" x="806.84" y="332.6211">areaService</text><!--MD5=[6d5d62a27875e1d77dc150af89acf169]
reverse link sv.edu.udb.www.jobboard.controllers.CompanyController to sv.edu.udb.www.jobboard.services.CompanyService--><path codeLine="84" d="M695.576,263.777 C685.088,282.257 671.816,300.785 655.64,314.625 C649.568,319.817 644.8,315.705 638.84,321.025 C622.04,336.033 611.504,360.145 605.808,376.833 " fill="none" id="sv.edu.udb.www.jobboard.controllers.CompanyController-backto-sv.edu.udb.www.jobboard.services.CompanyService" style="stroke:#A80036;stroke-width:0.8000000000000002;"/><polygon fill="#FFFFFF" points="700.656,254.433,695.5518,257.1213,696.0701,262.8668,701.1743,260.1785,700.656,254.433" style="stroke:#A80036;stroke-width:0.8000000000000002;"/><text fill="#000000" font-family="sans-serif" font-size="10.4" lengthAdjust="spacing" textLength="76" x="639.64" y="332.6211">companyService</text><!--MD5=[7b6f41f306fc169cc3806adadbba8fb1]
reverse link sv.edu.udb.www.jobboard.controllers.CompanyController to sv.edu.udb.www.jobboard.services.JobOfferService--><path codeLine="85" d="M723.776,265.049 C723.36,287.625 723.184,312.553 723.64,335.425 C723.92,349.289 724.552,364.937 725.104,376.785 " fill="none" id="sv.edu.udb.www.jobboard.controllers.CompanyController-backto-sv.edu.udb.www.jobboard.services.JobOfferService" style="stroke:#A80036;stroke-width:0.8000000000000002;"/><polygon fill="#FFFFFF" points="723.992,254.513,720.6925,259.2452,723.7916,264.1109,727.0911,259.3788,723.992,254.513" style="stroke:#A80036;stroke-width:0.8000000000000002;"/><text fill="#000000" font-family="sans-serif" font-size="10.4" lengthAdjust="spacing" textLength="68.8" x="724.44" y="332.6211">jobOfferService</text><!--MD5=[c30c00c6761b4f884f6bff52d7aad5f2]
reverse link sv.edu.udb.www.jobboard.controllers.HomeController to sv.edu.udb.www.jobboard.services.EmailService--><path codeLine="86" d="M1139.688,236.617 C1150.288,266.777 1157.432,306.129 1138.84,335.425 C1135.264,341.065 1130.744,338.041 1125.24,341.825 C1110.592,351.881 1096.168,365.817 1085.624,376.961 " fill="none" id="sv.edu.udb.www.jobboard.controllers.HomeController-backto-sv.edu.udb.www.jobboard.services.EmailService" style="stroke:#A80036;stroke-width:0.8000000000000002;"/><polygon fill="#FFFFFF" points="1136,226.761,1134.6862,232.3783,1139.3662,235.7515,1140.6799,230.1342,1136,226.761" style="stroke:#A80036;stroke-width:0.8000000000000002;"/><text fill="#000000" font-family="sans-serif" font-size="10.4" lengthAdjust="spacing" textLength="58.4" x="1146.04" y="332.6211">emailService</text><!--MD5=[9f392f9b7192b7c5cec7fd35c86a534d]
reverse link sv.edu.udb.www.jobboard.controllers.ProfessionalController to sv.edu.udb.www.jobboard.services.JobOfferService--><path codeLine="87" d="M535.656,286.881 C534.032,304.809 537.424,322.089 550.04,335.425 C558.784,344.673 652.648,337.033 664.44,341.825 C682.824,349.297 699.528,364.625 710.888,376.985 " fill="none" id="sv.edu.udb.www.jobboard.controllers.ProfessionalController-backto-sv.edu.udb.www.jobboard.services.JobOfferService" style="stroke:#A80036;stroke-width:0.8000000000000002;"/><polygon fill="#FFFFFF" points="537.112,276.577,533.2734,280.8834,535.7721,286.083,539.6107,281.7767,537.112,276.577" style="stroke:#A80036;stroke-width:0.8000000000000002;"/><text fill="#000000" font-family="sans-serif" font-size="10.4" lengthAdjust="spacing" textLength="68.8" x="550.84" y="332.6211">jobOfferService</text><!--MD5=[35444123afd4fbacdd5ff4465730c57c]
reverse link sv.edu.udb.www.jobboard.controllers.ProfessionalController to sv.edu.udb.www.jobboard.services.ProfessionalService--><path codeLine="88" d="M530.288,284.617 C520.664,296.465 509.424,307.065 496.44,314.625 C486.128,320.625 397.424,312.337 389.24,321.025 C384.856,325.681 386.448,329.665 389.24,335.425 C392.048,341.209 418.64,361.513 439.592,376.913 " fill="none" id="sv.edu.udb.www.jobboard.controllers.ProfessionalController-backto-sv.edu.udb.www.jobboard.services.ProfessionalService" style="stroke:#A80036;stroke-width:0.8000000000000002;"/><polygon fill="#FFFFFF" points="536.688,276.241,531.2317,278.1143,530.8624,283.8713,536.3186,281.998,536.688,276.241" style="stroke:#A80036;stroke-width:0.8000000000000002;"/><text fill="#000000" font-family="sans-serif" font-size="10.4" lengthAdjust="spacing" textLength="88.8" x="390.04" y="332.6211">professionalService</text><!--MD5=[ed70f7dac76198e478d1f7805852c445]
reverse link sv.edu.udb.www.jobboard.controllers.RegisterController to sv.edu.udb.www.jobboard.services.AccountService--><path codeLine="89" d="M1026.656,246.633 C1039.52,268.761 1052.328,295.129 1058.84,321.025 C1060.4,327.233 1063.032,330.593 1058.84,335.425 C1052.248,343.025 1023.176,337.609 1014.04,341.825 C996.408,349.961 980.12,364.897 968.848,376.945 " fill="none" id="sv.edu.udb.www.jobboard.controllers.RegisterController-backto-sv.edu.udb.www.jobboard.services.AccountService" style="stroke:#A80036;stroke-width:0.8000000000000002;"/><polygon fill="#FFFFFF" points="1021.152,237.425,1020.8689,243.1869,1026.0787,245.6644,1026.3618,239.9024,1021.152,237.425" style="stroke:#A80036;stroke-width:0.8000000000000002;"/><text fill="#000000" font-family="sans-serif" font-size="10.4" lengthAdjust="spacing" textLength="70.4" x="1061.24" y="332.6211">accountService</text><!--MD5=[c7c101cb868f4817ffa812dd3be06be8]
reverse link sv.edu.udb.www.jobboard.controllers.RegisterController to sv.edu.udb.www.jobboard.services.AreaService--><path codeLine="90" d="M987.752,247.961 C983.816,278.417 973.576,314.033 948.44,335.425 C929.632,351.433 915.432,330.993 893.24,341.825 C877.04,349.737 862.968,364.689 853.432,376.801 " fill="none" id="sv.edu.udb.www.jobboard.controllers.RegisterController-backto-sv.edu.udb.www.jobboard.services.AreaService" style="stroke:#A80036;stroke-width:0.8000000000000002;"/><polygon fill="#FFFFFF" points="988.888,237.433,985.1845,241.8561,987.8429,246.9759,991.5464,242.5528,988.888,237.433" style="stroke:#A80036;stroke-width:0.8000000000000002;"/><text fill="#000000" font-family="sans-serif" font-size="10.4" lengthAdjust="spacing" textLength="53.6" x="959.64" y="332.6211">areaService</text><!--MD5=[dc1490a095997e76ffdb2a27ac6cf98b]
reverse link sv.edu.udb.www.jobboard.controllers.TagController to sv.edu.udb.www.jobboard.services.TagService--><path codeLine="91" d="M1230.968,264.785 C1226.472,287.849 1220.208,313.113 1211.64,335.425 C1206.016,350.081 1197.024,365.321 1189.536,376.777 " fill="none" id="sv.edu.udb.www.jobboard.controllers.TagController-backto-sv.edu.udb.www.jobboard.services.TagService" style="stroke:#A80036;stroke-width:0.8000000000000002;"/><polygon fill="#FFFFFF" points="1232.912,254.361,1228.8903,258.4969,1231.1613,263.8,1235.183,259.6641,1232.912,254.361" style="stroke:#A80036;stroke-width:0.8000000000000002;"/><text fill="#000000" font-family="sans-serif" font-size="10.4" lengthAdjust="spacing" textLength="48" x="1216.44" y="332.6211">tagService</text><text fill="#888888" font-family="sans-serif" font-size="8" lengthAdjust="spacing" textLength="0" x="1322.84" y="441.3297"/><text fill="#888888" font-family="sans-serif" font-size="8" lengthAdjust="spacing" textLength="0" x="1322.84" y="451.3922"/><text fill="#888888" font-family="sans-serif" font-size="8" lengthAdjust="spacing" textLength="313.6" x="1009.24" y="461.4547">PlantUML diagram generated by SketchIt! (https://bitbucket.org/pmesmeur/sketch.it)</text><text fill="#888888" font-family="sans-serif" font-size="8" lengthAdjust="spacing" textLength="315.2" x="1007.64" y="471.5172">For more information about this tool, please contact philippe.mesmeur@gmail.com</text><!--MD5=[b9e9b91fdb57df657207bd23e2079b0e]
@startuml

title __CONTROLLERS's Class Diagram__\n

    namespace sv.edu.udb.www.jobboard {
      namespace controllers {
        class sv.edu.udb.www.jobboard.controllers.AdminController {
            + companies()
            + displayCompanies()
            + displayOffer()
            + displayProfessional()
            + getOffers()
            + initBinder()
            + module()
            + professionals()
        }
        class sv.edu.udb.www.jobboard.controllers.AreaController {
            + deleteArea()
            + getArea()
            + initBinder()
            + module()
            + newArea()
            + saveArea()
            + saveUpdatedArea()
            + updateArea()
        }
        class sv.edu.udb.www.jobboard.controllers.CompanyController {
            + applicants()
            + displayOffer()
            + initBinder()
            + module()
            + offers()
            + profile()
            + publishOffer()
            + saveNewOffer()
        }
        class sv.edu.udb.www.jobboard.controllers.HomeController {
            + getIndex()
            + mail()
            + module()
        }
        class sv.edu.udb.www.jobboard.controllers.RegisterController {
            + initBinder()
            + registerCompany()
            + registerProfessional()
            + saveCompany()
            + saveProfessional()
        }
        class sv.edu.udb.www.jobboard.controllers.TagController {
            + deleteTag()
            + getTags()
            + initBinder()
            + module()
            + newTag()
            + saveTag()
            + saveUpdatedTag()
            + updateTag()
        }
        class sv.edu.udb.www.jobboard.controllers.LoginController {
            + login()
        }
        class sv.edu.udb.www.jobboard.controllers.ProfessionalController {
            + displayApply()
            + displayJobOffer()
            + getApplications()
            + getJobOffer()
            + getProfile()
            + getResume()
            + initBinder()
            + module()
            + saveProfessional()
            + saveProfessional1()
            + saveUpdatedProfessional()
            + saveUpdatedProfessional1()
        }
    }



  sv.edu.udb.www.jobboard.controllers.AdminController o- - sv.edu.udb.www.jobboard.services.AdminService : adminService
  sv.edu.udb.www.jobboard.controllers.AdminController o- - sv.edu.udb.www.jobboard.services.CompanyService : companyService
  sv.edu.udb.www.jobboard.controllers.AdminController o- - sv.edu.udb.www.jobboard.services.ProfessionalService : professionalService
  sv.edu.udb.www.jobboard.controllers.AreaController o- - sv.edu.udb.www.jobboard.services.AreaService : areaService
  sv.edu.udb.www.jobboard.controllers.CompanyController o- - sv.edu.udb.www.jobboard.services.AreaService : areaService
  sv.edu.udb.www.jobboard.controllers.CompanyController o- - sv.edu.udb.www.jobboard.services.CompanyService : companyService
  sv.edu.udb.www.jobboard.controllers.CompanyController o- - sv.edu.udb.www.jobboard.services.JobOfferService : jobOfferService
  sv.edu.udb.www.jobboard.controllers.HomeController o- - sv.edu.udb.www.jobboard.services.EmailService : emailService
  sv.edu.udb.www.jobboard.controllers.ProfessionalController o- - sv.edu.udb.www.jobboard.services.JobOfferService : jobOfferService
  sv.edu.udb.www.jobboard.controllers.ProfessionalController o- - sv.edu.udb.www.jobboard.services.ProfessionalService : professionalService
  sv.edu.udb.www.jobboard.controllers.RegisterController o- - sv.edu.udb.www.jobboard.services.AccountService : accountService
  sv.edu.udb.www.jobboard.controllers.RegisterController o- - sv.edu.udb.www.jobboard.services.AreaService : areaService
  sv.edu.udb.www.jobboard.controllers.TagController o- - sv.edu.udb.www.jobboard.services.TagService : tagService


right footer


PlantUML diagram generated by SketchIt! (https://bitbucket.org/pmesmeur/sketch.it)
For more information about this tool, please contact philippe.mesmeur@gmail.com
endfooter

@enduml

PlantUML version 1.2021.11(Sat Oct 02 07:26:11 CST 2021)
(GPL source distribution)
Java Runtime: OpenJDK Runtime Environment
JVM: OpenJDK 64-Bit Server VM
Default Encoding: Cp1252
Language: en
Country: US
--></g></svg>