<?xml version="1.0" encoding="UTF-8" standalone="no"?><svg xmlns="http://www.w3.org/2000/svg" xmlns:xlink="http://www.w3.org/1999/xlink" contentScriptType="application/ecmascript" contentStyleType="text/css" height="553.6px" preserveAspectRatio="none" style="width:2838px;height:553px;background:#FFFFFF;" version="1.1" viewBox="0 0 2838 553" width="2838.4px" zoomAndPan="magnify"><defs><filter height="300%" id="f1l6e4gbd2j0jz" width="300%" x="-1" y="-1"><feGaussianBlur result="blurOut" stdDeviation="1.6000000000000003"/><feColorMatrix in="blurOut" result="blurOut2" type="matrix" values="0 0 0 0 0 0 0 0 0 0 0 0 0 0 0 0 0 0 .4 0"/><feOffset dx="3.2000000000000006" dy="3.2000000000000006" in="blurOut2" result="blurOut3"/><feBlend in="SourceGraphic" in2="blurOut3" mode="normal"/></filter></defs><g><text fill="#000000" font-family="sans-serif" font-size="14.4" lengthAdjust="spacing" text-decoration="underline" textLength="178.4" x="1324.8" y="14.9484">SERVICES's Class Diagram</text><text fill="#000000" font-family="sans-serif" font-size="14.4" lengthAdjust="spacing" textLength="0" x="1416" y="33.0609"/><!--MD5=[588f77091306e95fd869e560e39b47b7]
cluster sv.edu.udb.www.jobboard--><polygon fill="#FFFFFF" filter="url(#f1l6e4gbd2j0jz)" points="12.8,147.425,164,147.425,169.6,166.3125,1356.8,166.3125,1356.8,504.225,12.8,504.225,12.8,147.425" style="stroke:#000000;stroke-width:1.2000000000000002;"/><line style="stroke:#000000;stroke-width:1.2000000000000002;" x1="12.8" x2="169.6" y1="166.3125" y2="166.3125"/><text fill="#000000" font-family="sans-serif" font-size="11.2" font-weight="bold" lengthAdjust="spacing" textLength="146.4" x="16" y="160.6516">sv.edu.udb.www.jobboard</text><!--MD5=[853d19fd69bc469d7e986c12670608e0]
cluster sv.edu.udb.www.jobboard.services--><polygon fill="#FFFFFF" filter="url(#f1l6e4gbd2j0jz)" points="32,182.625,85.6,182.625,91.2,201.5125,1337.6,201.5125,1337.6,485.025,32,485.025,32,182.625" style="stroke:#000000;stroke-width:1.2000000000000002;"/><line style="stroke:#000000;stroke-width:1.2000000000000002;" x1="32" x2="91.2" y1="201.5125" y2="201.5125"/><text fill="#000000" font-family="sans-serif" font-size="11.2" font-weight="bold" lengthAdjust="spacing" textLength="48.8" x="35.2" y="195.8516">services</text><!--MD5=[a24b0acf6afd556830775c68dca1208f]
cluster sv.edu.udb.www.jobboard.models.dao--><polygon fill="#FFFFFF" filter="url(#f1l6e4gbd2j0jz)" points="1376,383.025,1595.2,383.025,1600.8,401.9125,2824.8,401.9125,2824.8,463.025,1376,463.025,1376,383.025" style="stroke:#000000;stroke-width:1.2000000000000002;"/><line style="stroke:#000000;stroke-width:1.2000000000000002;" x1="1376" x2="1600.8" y1="401.9125" y2="401.9125"/><text fill="#000000" font-family="sans-serif" font-size="11.2" font-weight="bold" lengthAdjust="spacing" textLength="214.4" x="1379.2" y="396.2516">sv.edu.udb.www.jobboard.models.dao</text><!--MD5=[57e34225f835d174216a2a581ad5def2]
cluster org.springframework.security.core.userdetails--><polygon fill="#FFFFFF" filter="url(#f1l6e4gbd2j0jz)" points="142.4,41.025,408,41.025,413.6,59.9125,416,59.9125,416,121.025,142.4,121.025,142.4,41.025" style="stroke:#000000;stroke-width:1.2000000000000002;"/><line style="stroke:#000000;stroke-width:1.2000000000000002;" x1="142.4" x2="413.6" y1="59.9125" y2="59.9125"/><text fill="#000000" font-family="sans-serif" font-size="11.2" font-weight="bold" lengthAdjust="spacing" textLength="260.8" x="145.6" y="54.2516">org.springframework.security.core.userdetails</text><!--MD5=[1e877d1f54636533bc01fc52be47dc85]
class sv.edu.udb.www.jobboard.services.AccountService--><rect codeLine="6" fill="#FEFECE" filter="url(#f1l6e4gbd2j0jz)" height="104.8125" id="sv.edu.udb.www.jobboard.services.AccountService" style="stroke:#A80036;stroke-width:1.2000000000000002;" width="158.4" x="368" y="217.025"/><ellipse cx="410.6" cy="229.825" fill="#ADD1B2" rx="8.8" ry="8.8" style="stroke:#A80036;stroke-width:0.8000000000000002;"/><path d="M412.2,227.025 Q412.3625,226.625 412.55,226.425 Q412.7375,226.225 412.95,226.225 Q413.325,226.225 413.5625,226.45 Q413.8,226.675 413.8,227.2 L413.8,228.45 Q413.8,228.975 413.575,229.2 Q413.35,229.425 413,229.425 Q412.6875,229.425 412.4875,229.2875 Q412.2875,229.15 412.2,228.7875 Q412.1625,228.5375 412.025,228.4 Q411.775,228.1375 411.325,227.9875 Q410.875,227.825 410.425,227.825 Q409.8625,227.825 409.3875,228.05 Q408.925,228.275 408.5625,228.775 Q408.2,229.275 408.2,229.9625 L408.2,230.7 Q408.2,231.525 408.875,232.075 Q409.55,232.625 410.75,232.625 Q411.4625,232.625 411.9625,232.4625 Q412.25,232.375 412.575,232.0875 Q412.7875,231.925 412.9,231.875 Q413.0125,231.825 413.15,231.825 Q413.4125,231.825 413.6,232.0375 Q413.8,232.2375 413.8,232.525 Q413.8,232.8 413.525,233.125 Q413.125,233.6 412.4875,233.8625 Q411.65,234.225 410.625,234.225 Q409.425,234.225 408.4625,233.75 Q407.6875,233.375 407.1375,232.5625 Q406.6,231.75 406.6,230.7875 L406.6,229.9125 Q406.6,228.9125 407.075,228.0375 Q407.5625,227.1625 408.4,226.7 Q409.25,226.225 410.2,226.225 Q410.775,226.225 411.275,226.425 Q411.775,226.625 412.2,227.025 Z " fill="#000000"/><text fill="#000000" font-family="sans-serif" font-size="9.6" lengthAdjust="spacing" textLength="66.4" x="427" y="233.7531">AccountService</text><line style="stroke:#A80036;stroke-width:1.2000000000000002;" x1="368.8" x2="525.6" y1="242.625" y2="242.625"/><polygon fill="none" points="376.8,248.225,373.6,253.025,380,253.025" style="stroke:#1963A0;stroke-width:0.8000000000000002;"/><text fill="#000000" font-family="sans-serif" font-size="8.8" lengthAdjust="spacing" textLength="137.6" x="384" y="254.9602">encoder : BCryptPasswordEncoder</text><line style="stroke:#A80036;stroke-width:1.2000000000000002;" x1="368.8" x2="525.6" y1="260.0938" y2="260.0938"/><ellipse cx="376.8" cy="268.8938" fill="#84BE84" rx="2.4" ry="2.4" style="stroke:#038048;stroke-width:0.8000000000000002;"/><text fill="#000000" font-family="sans-serif" font-size="8.8" lengthAdjust="spacing" textLength="75.2" x="384" y="272.4289">getAdminAccount()</text><ellipse cx="376.8" cy="279.9625" fill="#84BE84" rx="2.4" ry="2.4" style="stroke:#038048;stroke-width:0.8000000000000002;"/><text fill="#000000" font-family="sans-serif" font-size="8.8" lengthAdjust="spacing" textLength="78.4" x="384" y="283.4977">getCompanyProfile()</text><ellipse cx="376.8" cy="291.0313" fill="#84BE84" rx="2.4" ry="2.4" style="stroke:#038048;stroke-width:0.8000000000000002;"/><text fill="#000000" font-family="sans-serif" font-size="8.8" lengthAdjust="spacing" textLength="85.6" x="384" y="294.5664">getProfesionalProfile()</text><ellipse cx="376.8" cy="302.1" fill="#84BE84" rx="2.4" ry="2.4" style="stroke:#038048;stroke-width:0.8000000000000002;"/><text fill="#000000" font-family="sans-serif" font-size="8.8" lengthAdjust="spacing" textLength="60" x="384" y="305.6352">newCompany()</text><ellipse cx="376.8" cy="313.1688" fill="#84BE84" rx="2.4" ry="2.4" style="stroke:#038048;stroke-width:0.8000000000000002;"/><text fill="#000000" font-family="sans-serif" font-size="8.8" lengthAdjust="spacing" textLength="67.2" x="384" y="316.7039">newProfesional()</text><!--MD5=[69cae4b7381b403f09c62526c22c039f]
class sv.edu.udb.www.jobboard.services.AdminService--><rect codeLine="14" fill="#FEFECE" filter="url(#f1l6e4gbd2j0jz)" height="60.5375" id="sv.edu.udb.www.jobboard.services.AdminService" style="stroke:#A80036;stroke-width:1.2000000000000002;" width="116" x="554.8" y="239.025"/><ellipse cx="580.48" cy="251.825" fill="#ADD1B2" rx="8.8" ry="8.8" style="stroke:#A80036;stroke-width:0.8000000000000002;"/><path d="M582.08,249.025 Q582.2425,248.625 582.43,248.425 Q582.6175,248.225 582.83,248.225 Q583.205,248.225 583.4425,248.45 Q583.68,248.675 583.68,249.2 L583.68,250.45 Q583.68,250.975 583.455,251.2 Q583.23,251.425 582.88,251.425 Q582.5675,251.425 582.3675,251.2875 Q582.1675,251.15 582.08,250.7875 Q582.0425,250.5375 581.905,250.4 Q581.655,250.1375 581.205,249.9875 Q580.755,249.825 580.305,249.825 Q579.7425,249.825 579.2675,250.05 Q578.805,250.275 578.4425,250.775 Q578.08,251.275 578.08,251.9625 L578.08,252.7 Q578.08,253.525 578.755,254.075 Q579.43,254.625 580.63,254.625 Q581.3425,254.625 581.8425,254.4625 Q582.13,254.375 582.455,254.0875 Q582.6675,253.925 582.78,253.875 Q582.8925,253.825 583.03,253.825 Q583.2925,253.825 583.48,254.0375 Q583.68,254.2375 583.68,254.525 Q583.68,254.8 583.405,255.125 Q583.005,255.6 582.3675,255.8625 Q581.53,256.225 580.505,256.225 Q579.305,256.225 578.3425,255.75 Q577.5675,255.375 577.0175,254.5625 Q576.48,253.75 576.48,252.7875 L576.48,251.9125 Q576.48,250.9125 576.955,250.0375 Q577.4425,249.1625 578.28,248.7 Q579.13,248.225 580.08,248.225 Q580.655,248.225 581.155,248.425 Q581.655,248.625 582.08,249.025 Z " fill="#000000"/><text fill="#000000" font-family="sans-serif" font-size="9.6" lengthAdjust="spacing" textLength="60" x="594.72" y="255.7531">AdminService</text><line style="stroke:#A80036;stroke-width:1.2000000000000002;" x1="555.6" x2="670" y1="264.625" y2="264.625"/><line style="stroke:#A80036;stroke-width:1.2000000000000002;" x1="555.6" x2="670" y1="271.025" y2="271.025"/><ellipse cx="563.6" cy="279.825" fill="#84BE84" rx="2.4" ry="2.4" style="stroke:#038048;stroke-width:0.8000000000000002;"/><text fill="#000000" font-family="sans-serif" font-size="8.8" lengthAdjust="spacing" textLength="83.2" x="570.8" y="283.3602">getCompanyProfiles()</text><ellipse cx="563.6" cy="290.8938" fill="#84BE84" rx="2.4" ry="2.4" style="stroke:#038048;stroke-width:0.8000000000000002;"/><text fill="#000000" font-family="sans-serif" font-size="8.8" lengthAdjust="spacing" textLength="95.2" x="570.8" y="294.4289">getProfessionalProfiles()</text><!--MD5=[2e526437740008c39c583cd5a4ef789a]
class sv.edu.udb.www.jobboard.services.AreaService--><rect codeLine="18" fill="#FEFECE" filter="url(#f1l6e4gbd2j0jz)" height="93.7438" id="sv.edu.udb.www.jobboard.services.AreaService" style="stroke:#A80036;stroke-width:1.2000000000000002;" width="77.6" x="698.8" y="222.625"/><ellipse cx="710.8" cy="235.425" fill="#ADD1B2" rx="8.8" ry="8.8" style="stroke:#A80036;stroke-width:0.8000000000000002;"/><path d="M712.4,232.625 Q712.5625,232.225 712.75,232.025 Q712.9375,231.825 713.15,231.825 Q713.525,231.825 713.7625,232.05 Q714,232.275 714,232.8 L714,234.05 Q714,234.575 713.775,234.8 Q713.55,235.025 713.2,235.025 Q712.8875,235.025 712.6875,234.8875 Q712.4875,234.75 712.4,234.3875 Q712.3625,234.1375 712.225,234 Q711.975,233.7375 711.525,233.5875 Q711.075,233.425 710.625,233.425 Q710.0625,233.425 709.5875,233.65 Q709.125,233.875 708.7625,234.375 Q708.4,234.875 708.4,235.5625 L708.4,236.3 Q708.4,237.125 709.075,237.675 Q709.75,238.225 710.95,238.225 Q711.6625,238.225 712.1625,238.0625 Q712.45,237.975 712.775,237.6875 Q712.9875,237.525 713.1,237.475 Q713.2125,237.425 713.35,237.425 Q713.6125,237.425 713.8,237.6375 Q714,237.8375 714,238.125 Q714,238.4 713.725,238.725 Q713.325,239.2 712.6875,239.4625 Q711.85,239.825 710.825,239.825 Q709.625,239.825 708.6625,239.35 Q707.8875,238.975 707.3375,238.1625 Q706.8,237.35 706.8,236.3875 L706.8,235.5125 Q706.8,234.5125 707.275,233.6375 Q707.7625,232.7625 708.6,232.3 Q709.45,231.825 710.4,231.825 Q710.975,231.825 711.475,232.025 Q711.975,232.225 712.4,232.625 Z " fill="#000000"/><text fill="#000000" font-family="sans-serif" font-size="9.6" lengthAdjust="spacing" textLength="52" x="722" y="239.3531">AreaService</text><line style="stroke:#A80036;stroke-width:1.2000000000000002;" x1="699.6" x2="775.6" y1="248.225" y2="248.225"/><line style="stroke:#A80036;stroke-width:1.2000000000000002;" x1="699.6" x2="775.6" y1="254.625" y2="254.625"/><ellipse cx="707.6" cy="263.425" fill="#84BE84" rx="2.4" ry="2.4" style="stroke:#038048;stroke-width:0.8000000000000002;"/><text fill="#000000" font-family="sans-serif" font-size="8.8" lengthAdjust="spacing" textLength="40" x="714.8" y="266.9602">addArea()</text><ellipse cx="707.6" cy="274.4938" fill="#84BE84" rx="2.4" ry="2.4" style="stroke:#038048;stroke-width:0.8000000000000002;"/><text fill="#000000" font-family="sans-serif" font-size="8.8" lengthAdjust="spacing" textLength="39.2" x="714.8" y="278.0289">editArea()</text><ellipse cx="707.6" cy="285.5625" fill="#84BE84" rx="2.4" ry="2.4" style="stroke:#038048;stroke-width:0.8000000000000002;"/><text fill="#000000" font-family="sans-serif" font-size="8.8" lengthAdjust="spacing" textLength="37.6" x="714.8" y="289.0977">getArea()</text><ellipse cx="707.6" cy="296.6313" fill="#84BE84" rx="2.4" ry="2.4" style="stroke:#038048;stroke-width:0.8000000000000002;"/><text fill="#000000" font-family="sans-serif" font-size="8.8" lengthAdjust="spacing" textLength="51.2" x="714.8" y="300.1664">getAreaList()</text><ellipse cx="707.6" cy="307.7" fill="#84BE84" rx="2.4" ry="2.4" style="stroke:#038048;stroke-width:0.8000000000000002;"/><text fill="#000000" font-family="sans-serif" font-size="8.8" lengthAdjust="spacing" textLength="54.4" x="714.8" y="311.2352">removeArea()</text><!--MD5=[b26c96b97d9dfaa73cf73cd35681903d]
class sv.edu.udb.www.jobboard.services.CompanyService--><rect codeLine="25" fill="#FEFECE" filter="url(#f1l6e4gbd2j0jz)" height="71.6063" id="sv.edu.udb.www.jobboard.services.CompanyService" style="stroke:#A80036;stroke-width:1.2000000000000002;" width="127.2" x="804.4" y="233.425"/><ellipse cx="828.64" cy="246.225" fill="#ADD1B2" rx="8.8" ry="8.8" style="stroke:#A80036;stroke-width:0.8000000000000002;"/><path d="M830.24,243.425 Q830.4025,243.025 830.59,242.825 Q830.7775,242.625 830.99,242.625 Q831.365,242.625 831.6025,242.85 Q831.84,243.075 831.84,243.6 L831.84,244.85 Q831.84,245.375 831.615,245.6 Q831.39,245.825 831.04,245.825 Q830.7275,245.825 830.5275,245.6875 Q830.3275,245.55 830.24,245.1875 Q830.2025,244.9375 830.065,244.8 Q829.815,244.5375 829.365,244.3875 Q828.915,244.225 828.465,244.225 Q827.9025,244.225 827.4275,244.45 Q826.965,244.675 826.6025,245.175 Q826.24,245.675 826.24,246.3625 L826.24,247.1 Q826.24,247.925 826.915,248.475 Q827.59,249.025 828.79,249.025 Q829.5025,249.025 830.0025,248.8625 Q830.29,248.775 830.615,248.4875 Q830.8275,248.325 830.94,248.275 Q831.0525,248.225 831.19,248.225 Q831.4525,248.225 831.64,248.4375 Q831.84,248.6375 831.84,248.925 Q831.84,249.2 831.565,249.525 Q831.165,250 830.5275,250.2625 Q829.69,250.625 828.665,250.625 Q827.465,250.625 826.5025,250.15 Q825.7275,249.775 825.1775,248.9625 Q824.64,248.15 824.64,247.1875 L824.64,246.3125 Q824.64,245.3125 825.115,244.4375 Q825.6025,243.5625 826.44,243.1 Q827.29,242.625 828.24,242.625 Q828.815,242.625 829.315,242.825 Q829.815,243.025 830.24,243.425 Z " fill="#000000"/><text fill="#000000" font-family="sans-serif" font-size="9.6" lengthAdjust="spacing" textLength="74.4" x="842.56" y="250.1531">CompanyService</text><line style="stroke:#A80036;stroke-width:1.2000000000000002;" x1="805.2" x2="930.8" y1="259.025" y2="259.025"/><line style="stroke:#A80036;stroke-width:1.2000000000000002;" x1="805.2" x2="930.8" y1="265.425" y2="265.425"/><ellipse cx="813.2" cy="274.225" fill="#84BE84" rx="2.4" ry="2.4" style="stroke:#038048;stroke-width:0.8000000000000002;"/><text fill="#000000" font-family="sans-serif" font-size="8.8" lengthAdjust="spacing" textLength="106.4" x="820.4" y="277.7602">getCompanyAccountForm()</text><ellipse cx="813.2" cy="285.2938" fill="#84BE84" rx="2.4" ry="2.4" style="stroke:#038048;stroke-width:0.8000000000000002;"/><text fill="#000000" font-family="sans-serif" font-size="8.8" lengthAdjust="spacing" textLength="55.2" x="820.4" y="288.8289">getMyOffers()</text><ellipse cx="813.2" cy="296.3625" fill="#84BE84" rx="2.4" ry="2.4" style="stroke:#038048;stroke-width:0.8000000000000002;"/><text fill="#000000" font-family="sans-serif" font-size="8.8" lengthAdjust="spacing" textLength="54.4" x="820.4" y="299.8977">publishOffer()</text><!--MD5=[95bbe3875bef4646f637514998182383]
class sv.edu.udb.www.jobboard.services.EmailService--><rect codeLine="30" fill="#FEFECE" filter="url(#f1l6e4gbd2j0jz)" height="60.5375" id="sv.edu.udb.www.jobboard.services.EmailService" style="stroke:#A80036;stroke-width:1.2000000000000002;" width="144.8" x="45.2" y="239.025"/><ellipse cx="85" cy="251.825" fill="#B4A7E5" rx="8.8" ry="8.8" style="stroke:#A80036;stroke-width:0.8000000000000002;"/><path d="M85.8,249.425 L85.8,254.225 L87.4,254.225 L87.7875,254.225 L88.2,254.725 L88.2,255.025 L88.2,255.325 L87.7875,255.825 L87.4,255.825 L82.6,255.825 L82.2125,255.825 L81.8,255.325 L81.8,255.025 L81.8,254.725 L82.2125,254.225 L82.6,254.225 L84.2,254.225 L84.2,249.425 L82.6,249.425 L82.2125,249.425 L81.8,248.925 L81.8,248.625 L81.8,248.325 L82.2125,247.825 L82.6,247.825 L87.4,247.825 L87.7875,247.825 L88.2,248.325 L88.2,248.625 L88.2,248.925 L87.7875,249.425 L87.4,249.425 L85.8,249.425 Z " fill="#000000"/><text fill="#000000" font-family="sans-serif" font-size="9.6" font-style="italic" lengthAdjust="spacing" textLength="58.4" x="101.4" y="255.7531">EmailService</text><line style="stroke:#A80036;stroke-width:1.2000000000000002;" x1="46" x2="189.2" y1="264.625" y2="264.625"/><line style="stroke:#A80036;stroke-width:1.2000000000000002;" x1="46" x2="189.2" y1="271.025" y2="271.025"/><ellipse cx="54" cy="279.825" fill="#84BE84" rx="2.4" ry="2.4" style="stroke:#038048;stroke-width:0.8000000000000002;"/><text fill="#000000" font-family="sans-serif" font-size="8.8" font-style="italic" lengthAdjust="spacing" textLength="124" x="61.2" y="283.3602">sendMessageWithAttachment()</text><ellipse cx="54" cy="290.8938" fill="#84BE84" rx="2.4" ry="2.4" style="stroke:#038048;stroke-width:0.8000000000000002;"/><text fill="#000000" font-family="sans-serif" font-size="8.8" font-style="italic" lengthAdjust="spacing" textLength="88.8" x="61.2" y="294.4289">sendSimpleMessage()</text><!--MD5=[763c4499aa8a2b8d3581995d24c01267]
class sv.edu.udb.www.jobboard.services.EmailServiceImpl--><rect codeLine="34" fill="#FEFECE" filter="url(#f1l6e4gbd2j0jz)" height="82.675" id="sv.edu.udb.www.jobboard.services.EmailServiceImpl" style="stroke:#A80036;stroke-width:1.2000000000000002;" width="142.4" x="46.4" y="389.825"/><ellipse cx="76.4" cy="402.625" fill="#ADD1B2" rx="8.8" ry="8.8" style="stroke:#A80036;stroke-width:0.8000000000000002;"/><path d="M78,399.825 Q78.1625,399.425 78.35,399.225 Q78.5375,399.025 78.75,399.025 Q79.125,399.025 79.3625,399.25 Q79.6,399.475 79.6,400 L79.6,401.25 Q79.6,401.775 79.375,402 Q79.15,402.225 78.8,402.225 Q78.4875,402.225 78.2875,402.0875 Q78.0875,401.95 78,401.5875 Q77.9625,401.3375 77.825,401.2 Q77.575,400.9375 77.125,400.7875 Q76.675,400.625 76.225,400.625 Q75.6625,400.625 75.1875,400.85 Q74.725,401.075 74.3625,401.575 Q74,402.075 74,402.7625 L74,403.5 Q74,404.325 74.675,404.875 Q75.35,405.425 76.55,405.425 Q77.2625,405.425 77.7625,405.2625 Q78.05,405.175 78.375,404.8875 Q78.5875,404.725 78.7,404.675 Q78.8125,404.625 78.95,404.625 Q79.2125,404.625 79.4,404.8375 Q79.6,405.0375 79.6,405.325 Q79.6,405.6 79.325,405.925 Q78.925,406.4 78.2875,406.6625 Q77.45,407.025 76.425,407.025 Q75.225,407.025 74.2625,406.55 Q73.4875,406.175 72.9375,405.3625 Q72.4,404.55 72.4,403.5875 L72.4,402.7125 Q72.4,401.7125 72.875,400.8375 Q73.3625,399.9625 74.2,399.5 Q75.05,399.025 76,399.025 Q76.575,399.025 77.075,399.225 Q77.575,399.425 78,399.825 Z " fill="#000000"/><text fill="#000000" font-family="sans-serif" font-size="9.6" lengthAdjust="spacing" textLength="76.8" x="91.6" y="406.5531">EmailServiceImpl</text><line style="stroke:#A80036;stroke-width:1.2000000000000002;" x1="47.2" x2="188" y1="415.425" y2="415.425"/><rect fill="none" height="4.8" style="stroke:#C82930;stroke-width:0.8000000000000002;" width="4.8" x="52.8" y="421.825"/><text fill="#000000" font-family="sans-serif" font-size="8.8" lengthAdjust="spacing" text-decoration="underline" textLength="112" x="62.4" y="427.7602">NOREPLY_ADDRESS : String</text><rect fill="none" height="4.8" style="stroke:#C82930;stroke-width:0.8000000000000002;" width="4.8" x="52.8" y="432.8938"/><text fill="#000000" font-family="sans-serif" font-size="8.8" lengthAdjust="spacing" textLength="115.2" x="62.4" y="438.8289">emailSender : JavaMailSender</text><line style="stroke:#A80036;stroke-width:1.2000000000000002;" x1="47.2" x2="188" y1="443.9625" y2="443.9625"/><ellipse cx="55.2" cy="452.7625" fill="#84BE84" rx="2.4" ry="2.4" style="stroke:#038048;stroke-width:0.8000000000000002;"/><text fill="#000000" font-family="sans-serif" font-size="8.8" lengthAdjust="spacing" textLength="121.6" x="62.4" y="456.2977">sendMessageWithAttachment()</text><ellipse cx="55.2" cy="463.8313" fill="#84BE84" rx="2.4" ry="2.4" style="stroke:#038048;stroke-width:0.8000000000000002;"/><text fill="#000000" font-family="sans-serif" font-size="8.8" lengthAdjust="spacing" textLength="85.6" x="62.4" y="467.3664">sendSimpleMessage()</text><!--MD5=[fcac9230ad108dd1ce78be60ff0a2813]
class sv.edu.udb.www.jobboard.services.JobOfferService--><rect codeLine="40" fill="#FEFECE" filter="url(#f1l6e4gbd2j0jz)" height="49.4688" id="sv.edu.udb.www.jobboard.services.JobOfferService" style="stroke:#A80036;stroke-width:1.2000000000000002;" width="94.4" x="1127.2" y="244.625"/><ellipse cx="1139.2" cy="257.425" fill="#ADD1B2" rx="8.8" ry="8.8" style="stroke:#A80036;stroke-width:0.8000000000000002;"/><path d="M1140.8,254.625 Q1140.9625,254.225 1141.15,254.025 Q1141.3375,253.825 1141.55,253.825 Q1141.925,253.825 1142.1625,254.05 Q1142.4,254.275 1142.4,254.8 L1142.4,256.05 Q1142.4,256.575 1142.175,256.8 Q1141.95,257.025 1141.6,257.025 Q1141.2875,257.025 1141.0875,256.8875 Q1140.8875,256.75 1140.8,256.3875 Q1140.7625,256.1375 1140.625,256 Q1140.375,255.7375 1139.925,255.5875 Q1139.475,255.425 1139.025,255.425 Q1138.4625,255.425 1137.9875,255.65 Q1137.525,255.875 1137.1625,256.375 Q1136.8,256.875 1136.8,257.5625 L1136.8,258.3 Q1136.8,259.125 1137.475,259.675 Q1138.15,260.225 1139.35,260.225 Q1140.0625,260.225 1140.5625,260.0625 Q1140.85,259.975 1141.175,259.6875 Q1141.3875,259.525 1141.5,259.475 Q1141.6125,259.425 1141.75,259.425 Q1142.0125,259.425 1142.2,259.6375 Q1142.4,259.8375 1142.4,260.125 Q1142.4,260.4 1142.125,260.725 Q1141.725,261.2 1141.0875,261.4625 Q1140.25,261.825 1139.225,261.825 Q1138.025,261.825 1137.0625,261.35 Q1136.2875,260.975 1135.7375,260.1625 Q1135.2,259.35 1135.2,258.3875 L1135.2,257.5125 Q1135.2,256.5125 1135.675,255.6375 Q1136.1625,254.7625 1137,254.3 Q1137.85,253.825 1138.8,253.825 Q1139.375,253.825 1139.875,254.025 Q1140.375,254.225 1140.8,254.625 Z " fill="#000000"/><text fill="#000000" font-family="sans-serif" font-size="9.6" lengthAdjust="spacing" textLength="68.8" x="1150.4" y="261.3531">JobOfferService</text><line style="stroke:#A80036;stroke-width:1.2000000000000002;" x1="1128" x2="1220.8" y1="270.225" y2="270.225"/><line style="stroke:#A80036;stroke-width:1.2000000000000002;" x1="1128" x2="1220.8" y1="276.625" y2="276.625"/><ellipse cx="1136" cy="285.425" fill="#84BE84" rx="2.4" ry="2.4" style="stroke:#038048;stroke-width:0.8000000000000002;"/><text fill="#000000" font-family="sans-serif" font-size="8.8" lengthAdjust="spacing" textLength="52.8" x="1143.2" y="288.9602">getJobOffer()</text><!--MD5=[b8b9dd569bbb4c2325142c74b62cf3d9]
class sv.edu.udb.www.jobboard.services.MyUserDetailsService--><rect codeLine="43" fill="#FEFECE" filter="url(#f1l6e4gbd2j0jz)" height="49.4688" id="sv.edu.udb.www.jobboard.services.MyUserDetailsService" style="stroke:#A80036;stroke-width:1.2000000000000002;" width="121.6" x="218.4" y="244.625"/><ellipse cx="230.4" cy="257.425" fill="#ADD1B2" rx="8.8" ry="8.8" style="stroke:#A80036;stroke-width:0.8000000000000002;"/><path d="M232,254.625 Q232.1625,254.225 232.35,254.025 Q232.5375,253.825 232.75,253.825 Q233.125,253.825 233.3625,254.05 Q233.6,254.275 233.6,254.8 L233.6,256.05 Q233.6,256.575 233.375,256.8 Q233.15,257.025 232.8,257.025 Q232.4875,257.025 232.2875,256.8875 Q232.0875,256.75 232,256.3875 Q231.9625,256.1375 231.825,256 Q231.575,255.7375 231.125,255.5875 Q230.675,255.425 230.225,255.425 Q229.6625,255.425 229.1875,255.65 Q228.725,255.875 228.3625,256.375 Q228,256.875 228,257.5625 L228,258.3 Q228,259.125 228.675,259.675 Q229.35,260.225 230.55,260.225 Q231.2625,260.225 231.7625,260.0625 Q232.05,259.975 232.375,259.6875 Q232.5875,259.525 232.7,259.475 Q232.8125,259.425 232.95,259.425 Q233.2125,259.425 233.4,259.6375 Q233.6,259.8375 233.6,260.125 Q233.6,260.4 233.325,260.725 Q232.925,261.2 232.2875,261.4625 Q231.45,261.825 230.425,261.825 Q229.225,261.825 228.2625,261.35 Q227.4875,260.975 226.9375,260.1625 Q226.4,259.35 226.4,258.3875 L226.4,257.5125 Q226.4,256.5125 226.875,255.6375 Q227.3625,254.7625 228.2,254.3 Q229.05,253.825 230,253.825 Q230.575,253.825 231.075,254.025 Q231.575,254.225 232,254.625 Z " fill="#000000"/><text fill="#000000" font-family="sans-serif" font-size="9.6" lengthAdjust="spacing" textLength="96" x="241.6" y="261.3531">MyUserDetailsService</text><line style="stroke:#A80036;stroke-width:1.2000000000000002;" x1="219.2" x2="339.2" y1="270.225" y2="270.225"/><line style="stroke:#A80036;stroke-width:1.2000000000000002;" x1="219.2" x2="339.2" y1="276.625" y2="276.625"/><ellipse cx="227.2" cy="285.425" fill="#84BE84" rx="2.4" ry="2.4" style="stroke:#038048;stroke-width:0.8000000000000002;"/><text fill="#000000" font-family="sans-serif" font-size="8.8" lengthAdjust="spacing" textLength="90.4" x="234.4" y="288.9602">loadUserByUsername()</text><!--MD5=[b0fc0c0a08b8bcd92da0928a4b3be80a]
class sv.edu.udb.www.jobboard.services.ProfessionalService--><rect codeLine="46" fill="#FEFECE" filter="url(#f1l6e4gbd2j0jz)" height="115.8813" id="sv.edu.udb.www.jobboard.services.ProfessionalService" style="stroke:#A80036;stroke-width:1.2000000000000002;" width="139.2" x="960" y="211.425"/><ellipse cx="983.52" cy="224.225" fill="#ADD1B2" rx="8.8" ry="8.8" style="stroke:#A80036;stroke-width:0.8000000000000002;"/><path d="M985.12,221.425 Q985.2825,221.025 985.47,220.825 Q985.6575,220.625 985.87,220.625 Q986.245,220.625 986.4825,220.85 Q986.72,221.075 986.72,221.6 L986.72,222.85 Q986.72,223.375 986.495,223.6 Q986.27,223.825 985.92,223.825 Q985.6075,223.825 985.4075,223.6875 Q985.2075,223.55 985.12,223.1875 Q985.0825,222.9375 984.945,222.8 Q984.695,222.5375 984.245,222.3875 Q983.795,222.225 983.345,222.225 Q982.7825,222.225 982.3075,222.45 Q981.845,222.675 981.4825,223.175 Q981.12,223.675 981.12,224.3625 L981.12,225.1 Q981.12,225.925 981.795,226.475 Q982.47,227.025 983.67,227.025 Q984.3825,227.025 984.8825,226.8625 Q985.17,226.775 985.495,226.4875 Q985.7075,226.325 985.82,226.275 Q985.9325,226.225 986.07,226.225 Q986.3325,226.225 986.52,226.4375 Q986.72,226.6375 986.72,226.925 Q986.72,227.2 986.445,227.525 Q986.045,228 985.4075,228.2625 Q984.57,228.625 983.545,228.625 Q982.345,228.625 981.3825,228.15 Q980.6075,227.775 980.0575,226.9625 Q979.52,226.15 979.52,225.1875 L979.52,224.3125 Q979.52,223.3125 979.995,222.4375 Q980.4825,221.5625 981.32,221.1 Q982.17,220.625 983.12,220.625 Q983.695,220.625 984.195,220.825 Q984.695,221.025 985.12,221.425 Z " fill="#000000"/><text fill="#000000" font-family="sans-serif" font-size="9.6" lengthAdjust="spacing" textLength="88" x="997.28" y="228.1531">ProfessionalService</text><line style="stroke:#A80036;stroke-width:1.2000000000000002;" x1="960.8" x2="1098.4" y1="237.025" y2="237.025"/><line style="stroke:#A80036;stroke-width:1.2000000000000002;" x1="960.8" x2="1098.4" y1="243.425" y2="243.425"/><ellipse cx="968.8" cy="252.225" fill="#84BE84" rx="2.4" ry="2.4" style="stroke:#038048;stroke-width:0.8000000000000002;"/><text fill="#000000" font-family="sans-serif" font-size="8.8" lengthAdjust="spacing" textLength="69.6" x="976" y="255.7602">applyToJobForm()</text><ellipse cx="968.8" cy="263.2938" fill="#84BE84" rx="2.4" ry="2.4" style="stroke:#038048;stroke-width:0.8000000000000002;"/><text fill="#000000" font-family="sans-serif" font-size="8.8" lengthAdjust="spacing" textLength="68" x="976" y="266.8289">editProfessional()</text><ellipse cx="968.8" cy="274.3625" fill="#84BE84" rx="2.4" ry="2.4" style="stroke:#038048;stroke-width:0.8000000000000002;"/><text fill="#000000" font-family="sans-serif" font-size="8.8" lengthAdjust="spacing" textLength="53.6" x="976" y="277.8977">getAllOffers()</text><ellipse cx="968.8" cy="285.4313" fill="#84BE84" rx="2.4" ry="2.4" style="stroke:#038048;stroke-width:0.8000000000000002;"/><text fill="#000000" font-family="sans-serif" font-size="8.8" lengthAdjust="spacing" textLength="72" x="976" y="288.9664">getJobOfferForm()</text><ellipse cx="968.8" cy="296.5" fill="#84BE84" rx="2.4" ry="2.4" style="stroke:#038048;stroke-width:0.8000000000000002;"/><text fill="#000000" font-family="sans-serif" font-size="8.8" lengthAdjust="spacing" textLength="66.4" x="976" y="300.0352">getProfessional()</text><ellipse cx="968.8" cy="307.5688" fill="#84BE84" rx="2.4" ry="2.4" style="stroke:#038048;stroke-width:0.8000000000000002;"/><text fill="#000000" font-family="sans-serif" font-size="8.8" lengthAdjust="spacing" textLength="118.4" x="976" y="311.1039">getProfessionalAccountForm()</text><ellipse cx="968.8" cy="318.6375" fill="#84BE84" rx="2.4" ry="2.4" style="stroke:#038048;stroke-width:0.8000000000000002;"/><text fill="#000000" font-family="sans-serif" font-size="8.8" lengthAdjust="spacing" textLength="80" x="976" y="322.1727">getProfessionalList()</text><!--MD5=[8a7fe57459b09a38dc9c1b896e265cd9]
class sv.edu.udb.www.jobboard.services.TagService--><rect codeLine="55" fill="#FEFECE" filter="url(#f1l6e4gbd2j0jz)" height="93.7438" id="sv.edu.udb.www.jobboard.services.TagService" style="stroke:#A80036;stroke-width:1.2000000000000002;" width="74.4" x="1250" y="222.625"/><ellipse cx="1262" cy="235.425" fill="#ADD1B2" rx="8.8" ry="8.8" style="stroke:#A80036;stroke-width:0.8000000000000002;"/><path d="M1263.6,232.625 Q1263.7625,232.225 1263.95,232.025 Q1264.1375,231.825 1264.35,231.825 Q1264.725,231.825 1264.9625,232.05 Q1265.2,232.275 1265.2,232.8 L1265.2,234.05 Q1265.2,234.575 1264.975,234.8 Q1264.75,235.025 1264.4,235.025 Q1264.0875,235.025 1263.8875,234.8875 Q1263.6875,234.75 1263.6,234.3875 Q1263.5625,234.1375 1263.425,234 Q1263.175,233.7375 1262.725,233.5875 Q1262.275,233.425 1261.825,233.425 Q1261.2625,233.425 1260.7875,233.65 Q1260.325,233.875 1259.9625,234.375 Q1259.6,234.875 1259.6,235.5625 L1259.6,236.3 Q1259.6,237.125 1260.275,237.675 Q1260.95,238.225 1262.15,238.225 Q1262.8625,238.225 1263.3625,238.0625 Q1263.65,237.975 1263.975,237.6875 Q1264.1875,237.525 1264.3,237.475 Q1264.4125,237.425 1264.55,237.425 Q1264.8125,237.425 1265,237.6375 Q1265.2,237.8375 1265.2,238.125 Q1265.2,238.4 1264.925,238.725 Q1264.525,239.2 1263.8875,239.4625 Q1263.05,239.825 1262.025,239.825 Q1260.825,239.825 1259.8625,239.35 Q1259.0875,238.975 1258.5375,238.1625 Q1258,237.35 1258,236.3875 L1258,235.5125 Q1258,234.5125 1258.475,233.6375 Q1258.9625,232.7625 1259.8,232.3 Q1260.65,231.825 1261.6,231.825 Q1262.175,231.825 1262.675,232.025 Q1263.175,232.225 1263.6,232.625 Z " fill="#000000"/><text fill="#000000" font-family="sans-serif" font-size="9.6" lengthAdjust="spacing" textLength="48.8" x="1273.2" y="239.3531">TagService</text><line style="stroke:#A80036;stroke-width:1.2000000000000002;" x1="1250.8" x2="1323.6" y1="248.225" y2="248.225"/><line style="stroke:#A80036;stroke-width:1.2000000000000002;" x1="1250.8" x2="1323.6" y1="254.625" y2="254.625"/><ellipse cx="1258.8" cy="263.425" fill="#84BE84" rx="2.4" ry="2.4" style="stroke:#038048;stroke-width:0.8000000000000002;"/><text fill="#000000" font-family="sans-serif" font-size="8.8" lengthAdjust="spacing" textLength="35.2" x="1266" y="266.9602">addTag()</text><ellipse cx="1258.8" cy="274.4938" fill="#84BE84" rx="2.4" ry="2.4" style="stroke:#038048;stroke-width:0.8000000000000002;"/><text fill="#000000" font-family="sans-serif" font-size="8.8" lengthAdjust="spacing" textLength="34.4" x="1266" y="278.0289">editTag()</text><ellipse cx="1258.8" cy="285.5625" fill="#84BE84" rx="2.4" ry="2.4" style="stroke:#038048;stroke-width:0.8000000000000002;"/><text fill="#000000" font-family="sans-serif" font-size="8.8" lengthAdjust="spacing" textLength="32.8" x="1266" y="289.0977">getTag()</text><ellipse cx="1258.8" cy="296.6313" fill="#84BE84" rx="2.4" ry="2.4" style="stroke:#038048;stroke-width:0.8000000000000002;"/><text fill="#000000" font-family="sans-serif" font-size="8.8" lengthAdjust="spacing" textLength="37.6" x="1266" y="300.1664">getTags()</text><ellipse cx="1258.8" cy="307.7" fill="#84BE84" rx="2.4" ry="2.4" style="stroke:#038048;stroke-width:0.8000000000000002;"/><text fill="#000000" font-family="sans-serif" font-size="8.8" lengthAdjust="spacing" textLength="49.6" x="1266" y="311.2352">removeTag()</text><!--MD5=[07d5334552151662477a450132f6eecb]
class sv.edu.udb.www.jobboard.models.dao.AccountDao--><rect fill="#FEFECE" filter="url(#f1l6e4gbd2j0jz)" height="38.4" id="sv.edu.udb.www.jobboard.models.dao.AccountDao" style="stroke:#A80036;stroke-width:1.2000000000000002;" width="78.4" x="1388.8" y="411.825"/><ellipse cx="1400.8" cy="424.625" fill="#ADD1B2" rx="8.8" ry="8.8" style="stroke:#A80036;stroke-width:0.8000000000000002;"/><path d="M1402.4,421.825 Q1402.5625,421.425 1402.75,421.225 Q1402.9375,421.025 1403.15,421.025 Q1403.525,421.025 1403.7625,421.25 Q1404,421.475 1404,422 L1404,423.25 Q1404,423.775 1403.775,424 Q1403.55,424.225 1403.2,424.225 Q1402.8875,424.225 1402.6875,424.0875 Q1402.4875,423.95 1402.4,423.5875 Q1402.3625,423.3375 1402.225,423.2 Q1401.975,422.9375 1401.525,422.7875 Q1401.075,422.625 1400.625,422.625 Q1400.0625,422.625 1399.5875,422.85 Q1399.125,423.075 1398.7625,423.575 Q1398.4,424.075 1398.4,424.7625 L1398.4,425.5 Q1398.4,426.325 1399.075,426.875 Q1399.75,427.425 1400.95,427.425 Q1401.6625,427.425 1402.1625,427.2625 Q1402.45,427.175 1402.775,426.8875 Q1402.9875,426.725 1403.1,426.675 Q1403.2125,426.625 1403.35,426.625 Q1403.6125,426.625 1403.8,426.8375 Q1404,427.0375 1404,427.325 Q1404,427.6 1403.725,427.925 Q1403.325,428.4 1402.6875,428.6625 Q1401.85,429.025 1400.825,429.025 Q1399.625,429.025 1398.6625,428.55 Q1397.8875,428.175 1397.3375,427.3625 Q1396.8,426.55 1396.8,425.5875 L1396.8,424.7125 Q1396.8,423.7125 1397.275,422.8375 Q1397.7625,421.9625 1398.6,421.5 Q1399.45,421.025 1400.4,421.025 Q1400.975,421.025 1401.475,421.225 Q1401.975,421.425 1402.4,421.825 Z " fill="#000000"/><text fill="#000000" font-family="sans-serif" font-size="9.6" lengthAdjust="spacing" textLength="52.8" x="1412" y="428.5531">AccountDao</text><line style="stroke:#A80036;stroke-width:1.2000000000000002;" x1="1389.6" x2="1466.4" y1="437.425" y2="437.425"/><line style="stroke:#A80036;stroke-width:1.2000000000000002;" x1="1389.6" x2="1466.4" y1="443.825" y2="443.825"/><!--MD5=[7ec080f33d9ea09d20eb782cea68fa8d]
class sv.edu.udb.www.jobboard.models.dao.AccountStateDao--><rect fill="#FEFECE" filter="url(#f1l6e4gbd2j0jz)" height="38.4" id="sv.edu.udb.www.jobboard.models.dao.AccountStateDao" style="stroke:#A80036;stroke-width:1.2000000000000002;" width="100.8" x="1495.2" y="411.825"/><ellipse cx="1507.2" cy="424.625" fill="#ADD1B2" rx="8.8" ry="8.8" style="stroke:#A80036;stroke-width:0.8000000000000002;"/><path d="M1508.8,421.825 Q1508.9625,421.425 1509.15,421.225 Q1509.3375,421.025 1509.55,421.025 Q1509.925,421.025 1510.1625,421.25 Q1510.4,421.475 1510.4,422 L1510.4,423.25 Q1510.4,423.775 1510.175,424 Q1509.95,424.225 1509.6,424.225 Q1509.2875,424.225 1509.0875,424.0875 Q1508.8875,423.95 1508.8,423.5875 Q1508.7625,423.3375 1508.625,423.2 Q1508.375,422.9375 1507.925,422.7875 Q1507.475,422.625 1507.025,422.625 Q1506.4625,422.625 1505.9875,422.85 Q1505.525,423.075 1505.1625,423.575 Q1504.8,424.075 1504.8,424.7625 L1504.8,425.5 Q1504.8,426.325 1505.475,426.875 Q1506.15,427.425 1507.35,427.425 Q1508.0625,427.425 1508.5625,427.2625 Q1508.85,427.175 1509.175,426.8875 Q1509.3875,426.725 1509.5,426.675 Q1509.6125,426.625 1509.75,426.625 Q1510.0125,426.625 1510.2,426.8375 Q1510.4,427.0375 1510.4,427.325 Q1510.4,427.6 1510.125,427.925 Q1509.725,428.4 1509.0875,428.6625 Q1508.25,429.025 1507.225,429.025 Q1506.025,429.025 1505.0625,428.55 Q1504.2875,428.175 1503.7375,427.3625 Q1503.2,426.55 1503.2,425.5875 L1503.2,424.7125 Q1503.2,423.7125 1503.675,422.8375 Q1504.1625,421.9625 1505,421.5 Q1505.85,421.025 1506.8,421.025 Q1507.375,421.025 1507.875,421.225 Q1508.375,421.425 1508.8,421.825 Z " fill="#000000"/><text fill="#000000" font-family="sans-serif" font-size="9.6" lengthAdjust="spacing" textLength="75.2" x="1518.4" y="428.5531">AccountStateDao</text><line style="stroke:#A80036;stroke-width:1.2000000000000002;" x1="1496" x2="1595.2" y1="437.425" y2="437.425"/><line style="stroke:#A80036;stroke-width:1.2000000000000002;" x1="1496" x2="1595.2" y1="443.825" y2="443.825"/><!--MD5=[ff602256c87a89df9267e209bfa15623]
class sv.edu.udb.www.jobboard.models.dao.AccountTypeDao--><rect fill="#FEFECE" filter="url(#f1l6e4gbd2j0jz)" height="38.4" id="sv.edu.udb.www.jobboard.models.dao.AccountTypeDao" style="stroke:#A80036;stroke-width:1.2000000000000002;" width="99.2" x="1624" y="411.825"/><ellipse cx="1636" cy="424.625" fill="#ADD1B2" rx="8.8" ry="8.8" style="stroke:#A80036;stroke-width:0.8000000000000002;"/><path d="M1637.6,421.825 Q1637.7625,421.425 1637.95,421.225 Q1638.1375,421.025 1638.35,421.025 Q1638.725,421.025 1638.9625,421.25 Q1639.2,421.475 1639.2,422 L1639.2,423.25 Q1639.2,423.775 1638.975,424 Q1638.75,424.225 1638.4,424.225 Q1638.0875,424.225 1637.8875,424.0875 Q1637.6875,423.95 1637.6,423.5875 Q1637.5625,423.3375 1637.425,423.2 Q1637.175,422.9375 1636.725,422.7875 Q1636.275,422.625 1635.825,422.625 Q1635.2625,422.625 1634.7875,422.85 Q1634.325,423.075 1633.9625,423.575 Q1633.6,424.075 1633.6,424.7625 L1633.6,425.5 Q1633.6,426.325 1634.275,426.875 Q1634.95,427.425 1636.15,427.425 Q1636.8625,427.425 1637.3625,427.2625 Q1637.65,427.175 1637.975,426.8875 Q1638.1875,426.725 1638.3,426.675 Q1638.4125,426.625 1638.55,426.625 Q1638.8125,426.625 1639,426.8375 Q1639.2,427.0375 1639.2,427.325 Q1639.2,427.6 1638.925,427.925 Q1638.525,428.4 1637.8875,428.6625 Q1637.05,429.025 1636.025,429.025 Q1634.825,429.025 1633.8625,428.55 Q1633.0875,428.175 1632.5375,427.3625 Q1632,426.55 1632,425.5875 L1632,424.7125 Q1632,423.7125 1632.475,422.8375 Q1632.9625,421.9625 1633.8,421.5 Q1634.65,421.025 1635.6,421.025 Q1636.175,421.025 1636.675,421.225 Q1637.175,421.425 1637.6,421.825 Z " fill="#000000"/><text fill="#000000" font-family="sans-serif" font-size="9.6" lengthAdjust="spacing" textLength="73.6" x="1647.2" y="428.5531">AccountTypeDao</text><line style="stroke:#A80036;stroke-width:1.2000000000000002;" x1="1624.8" x2="1722.4" y1="437.425" y2="437.425"/><line style="stroke:#A80036;stroke-width:1.2000000000000002;" x1="1624.8" x2="1722.4" y1="443.825" y2="443.825"/><!--MD5=[7f84826c8848456256baf9f7320cb040]
class sv.edu.udb.www.jobboard.models.dao.AreaDao--><rect fill="#FEFECE" filter="url(#f1l6e4gbd2j0jz)" height="38.4" id="sv.edu.udb.www.jobboard.models.dao.AreaDao" style="stroke:#A80036;stroke-width:1.2000000000000002;" width="64" x="2044.8" y="411.825"/><ellipse cx="2056.8" cy="424.625" fill="#ADD1B2" rx="8.8" ry="8.8" style="stroke:#A80036;stroke-width:0.8000000000000002;"/><path d="M2058.4,421.825 Q2058.5625,421.425 2058.75,421.225 Q2058.9375,421.025 2059.15,421.025 Q2059.525,421.025 2059.7625,421.25 Q2060,421.475 2060,422 L2060,423.25 Q2060,423.775 2059.775,424 Q2059.55,424.225 2059.2,424.225 Q2058.8875,424.225 2058.6875,424.0875 Q2058.4875,423.95 2058.4,423.5875 Q2058.3625,423.3375 2058.225,423.2 Q2057.975,422.9375 2057.525,422.7875 Q2057.075,422.625 2056.625,422.625 Q2056.0625,422.625 2055.5875,422.85 Q2055.125,423.075 2054.7625,423.575 Q2054.4,424.075 2054.4,424.7625 L2054.4,425.5 Q2054.4,426.325 2055.075,426.875 Q2055.75,427.425 2056.95,427.425 Q2057.6625,427.425 2058.1625,427.2625 Q2058.45,427.175 2058.775,426.8875 Q2058.9875,426.725 2059.1,426.675 Q2059.2125,426.625 2059.35,426.625 Q2059.6125,426.625 2059.8,426.8375 Q2060,427.0375 2060,427.325 Q2060,427.6 2059.725,427.925 Q2059.325,428.4 2058.6875,428.6625 Q2057.85,429.025 2056.825,429.025 Q2055.625,429.025 2054.6625,428.55 Q2053.8875,428.175 2053.3375,427.3625 Q2052.8,426.55 2052.8,425.5875 L2052.8,424.7125 Q2052.8,423.7125 2053.275,422.8375 Q2053.7625,421.9625 2054.6,421.5 Q2055.45,421.025 2056.4,421.025 Q2056.975,421.025 2057.475,421.225 Q2057.975,421.425 2058.4,421.825 Z " fill="#000000"/><text fill="#000000" font-family="sans-serif" font-size="9.6" lengthAdjust="spacing" textLength="38.4" x="2068" y="428.5531">AreaDao</text><line style="stroke:#A80036;stroke-width:1.2000000000000002;" x1="2045.6" x2="2108" y1="437.425" y2="437.425"/><line style="stroke:#A80036;stroke-width:1.2000000000000002;" x1="2045.6" x2="2108" y1="443.825" y2="443.825"/><!--MD5=[4b39119749f66c6b699cbb7adb91326f]
class sv.edu.udb.www.jobboard.models.dao.CompanyProfileDao--><rect fill="#FEFECE" filter="url(#f1l6e4gbd2j0jz)" height="38.4" id="sv.edu.udb.www.jobboard.models.dao.CompanyProfileDao" style="stroke:#A80036;stroke-width:1.2000000000000002;" width="114.4" x="1902" y="411.825"/><ellipse cx="1914" cy="424.625" fill="#ADD1B2" rx="8.8" ry="8.8" style="stroke:#A80036;stroke-width:0.8000000000000002;"/><path d="M1915.6,421.825 Q1915.7625,421.425 1915.95,421.225 Q1916.1375,421.025 1916.35,421.025 Q1916.725,421.025 1916.9625,421.25 Q1917.2,421.475 1917.2,422 L1917.2,423.25 Q1917.2,423.775 1916.975,424 Q1916.75,424.225 1916.4,424.225 Q1916.0875,424.225 1915.8875,424.0875 Q1915.6875,423.95 1915.6,423.5875 Q1915.5625,423.3375 1915.425,423.2 Q1915.175,422.9375 1914.725,422.7875 Q1914.275,422.625 1913.825,422.625 Q1913.2625,422.625 1912.7875,422.85 Q1912.325,423.075 1911.9625,423.575 Q1911.6,424.075 1911.6,424.7625 L1911.6,425.5 Q1911.6,426.325 1912.275,426.875 Q1912.95,427.425 1914.15,427.425 Q1914.8625,427.425 1915.3625,427.2625 Q1915.65,427.175 1915.975,426.8875 Q1916.1875,426.725 1916.3,426.675 Q1916.4125,426.625 1916.55,426.625 Q1916.8125,426.625 1917,426.8375 Q1917.2,427.0375 1917.2,427.325 Q1917.2,427.6 1916.925,427.925 Q1916.525,428.4 1915.8875,428.6625 Q1915.05,429.025 1914.025,429.025 Q1912.825,429.025 1911.8625,428.55 Q1911.0875,428.175 1910.5375,427.3625 Q1910,426.55 1910,425.5875 L1910,424.7125 Q1910,423.7125 1910.475,422.8375 Q1910.9625,421.9625 1911.8,421.5 Q1912.65,421.025 1913.6,421.025 Q1914.175,421.025 1914.675,421.225 Q1915.175,421.425 1915.6,421.825 Z " fill="#000000"/><text fill="#000000" font-family="sans-serif" font-size="9.6" lengthAdjust="spacing" textLength="88.8" x="1925.2" y="428.5531">CompanyProfileDao</text><line style="stroke:#A80036;stroke-width:1.2000000000000002;" x1="1902.8" x2="2015.6" y1="437.425" y2="437.425"/><line style="stroke:#A80036;stroke-width:1.2000000000000002;" x1="1902.8" x2="2015.6" y1="443.825" y2="443.825"/><!--MD5=[4783ac7b0cd66851444c06a9e2fb7d06]
class sv.edu.udb.www.jobboard.models.dao.ProfesionalProfileDao--><rect fill="#FEFECE" filter="url(#f1l6e4gbd2j0jz)" height="38.4" id="sv.edu.udb.www.jobboard.models.dao.ProfesionalProfileDao" style="stroke:#A80036;stroke-width:1.2000000000000002;" width="122.4" x="1751.6" y="411.825"/><ellipse cx="1763.6" cy="424.625" fill="#ADD1B2" rx="8.8" ry="8.8" style="stroke:#A80036;stroke-width:0.8000000000000002;"/><path d="M1765.2,421.825 Q1765.3625,421.425 1765.55,421.225 Q1765.7375,421.025 1765.95,421.025 Q1766.325,421.025 1766.5625,421.25 Q1766.8,421.475 1766.8,422 L1766.8,423.25 Q1766.8,423.775 1766.575,424 Q1766.35,424.225 1766,424.225 Q1765.6875,424.225 1765.4875,424.0875 Q1765.2875,423.95 1765.2,423.5875 Q1765.1625,423.3375 1765.025,423.2 Q1764.775,422.9375 1764.325,422.7875 Q1763.875,422.625 1763.425,422.625 Q1762.8625,422.625 1762.3875,422.85 Q1761.925,423.075 1761.5625,423.575 Q1761.2,424.075 1761.2,424.7625 L1761.2,425.5 Q1761.2,426.325 1761.875,426.875 Q1762.55,427.425 1763.75,427.425 Q1764.4625,427.425 1764.9625,427.2625 Q1765.25,427.175 1765.575,426.8875 Q1765.7875,426.725 1765.9,426.675 Q1766.0125,426.625 1766.15,426.625 Q1766.4125,426.625 1766.6,426.8375 Q1766.8,427.0375 1766.8,427.325 Q1766.8,427.6 1766.525,427.925 Q1766.125,428.4 1765.4875,428.6625 Q1764.65,429.025 1763.625,429.025 Q1762.425,429.025 1761.4625,428.55 Q1760.6875,428.175 1760.1375,427.3625 Q1759.6,426.55 1759.6,425.5875 L1759.6,424.7125 Q1759.6,423.7125 1760.075,422.8375 Q1760.5625,421.9625 1761.4,421.5 Q1762.25,421.025 1763.2,421.025 Q1763.775,421.025 1764.275,421.225 Q1764.775,421.425 1765.2,421.825 Z " fill="#000000"/><text fill="#000000" font-family="sans-serif" font-size="9.6" lengthAdjust="spacing" textLength="96.8" x="1774.8" y="428.5531">ProfesionalProfileDao</text><line style="stroke:#A80036;stroke-width:1.2000000000000002;" x1="1752.4" x2="1873.2" y1="437.425" y2="437.425"/><line style="stroke:#A80036;stroke-width:1.2000000000000002;" x1="1752.4" x2="1873.2" y1="443.825" y2="443.825"/><!--MD5=[bcb12987bf4abca2e49059549fa6db5b]
class sv.edu.udb.www.jobboard.models.dao.CompanyAddressDao--><rect fill="#FEFECE" filter="url(#f1l6e4gbd2j0jz)" height="38.4" id="sv.edu.udb.www.jobboard.models.dao.CompanyAddressDao" style="stroke:#A80036;stroke-width:1.2000000000000002;" width="123.2" x="2268.8" y="411.825"/><ellipse cx="2280.8" cy="424.625" fill="#ADD1B2" rx="8.8" ry="8.8" style="stroke:#A80036;stroke-width:0.8000000000000002;"/><path d="M2282.4,421.825 Q2282.5625,421.425 2282.75,421.225 Q2282.9375,421.025 2283.15,421.025 Q2283.525,421.025 2283.7625,421.25 Q2284,421.475 2284,422 L2284,423.25 Q2284,423.775 2283.775,424 Q2283.55,424.225 2283.2,424.225 Q2282.8875,424.225 2282.6875,424.0875 Q2282.4875,423.95 2282.4,423.5875 Q2282.3625,423.3375 2282.225,423.2 Q2281.975,422.9375 2281.525,422.7875 Q2281.075,422.625 2280.625,422.625 Q2280.0625,422.625 2279.5875,422.85 Q2279.125,423.075 2278.7625,423.575 Q2278.4,424.075 2278.4,424.7625 L2278.4,425.5 Q2278.4,426.325 2279.075,426.875 Q2279.75,427.425 2280.95,427.425 Q2281.6625,427.425 2282.1625,427.2625 Q2282.45,427.175 2282.775,426.8875 Q2282.9875,426.725 2283.1,426.675 Q2283.2125,426.625 2283.35,426.625 Q2283.6125,426.625 2283.8,426.8375 Q2284,427.0375 2284,427.325 Q2284,427.6 2283.725,427.925 Q2283.325,428.4 2282.6875,428.6625 Q2281.85,429.025 2280.825,429.025 Q2279.625,429.025 2278.6625,428.55 Q2277.8875,428.175 2277.3375,427.3625 Q2276.8,426.55 2276.8,425.5875 L2276.8,424.7125 Q2276.8,423.7125 2277.275,422.8375 Q2277.7625,421.9625 2278.6,421.5 Q2279.45,421.025 2280.4,421.025 Q2280.975,421.025 2281.475,421.225 Q2281.975,421.425 2282.4,421.825 Z " fill="#000000"/><text fill="#000000" font-family="sans-serif" font-size="9.6" lengthAdjust="spacing" textLength="97.6" x="2292" y="428.5531">CompanyAddressDao</text><line style="stroke:#A80036;stroke-width:1.2000000000000002;" x1="2269.6" x2="2391.2" y1="437.425" y2="437.425"/><line style="stroke:#A80036;stroke-width:1.2000000000000002;" x1="2269.6" x2="2391.2" y1="443.825" y2="443.825"/><!--MD5=[e334c47e36b154372161d10b49c22261]
class sv.edu.udb.www.jobboard.models.dao.JobOfferDao--><rect fill="#FEFECE" filter="url(#f1l6e4gbd2j0jz)" height="38.4" id="sv.edu.udb.www.jobboard.models.dao.JobOfferDao" style="stroke:#A80036;stroke-width:1.2000000000000002;" width="80.8" x="2530.8" y="411.825"/><ellipse cx="2542.8" cy="424.625" fill="#ADD1B2" rx="8.8" ry="8.8" style="stroke:#A80036;stroke-width:0.8000000000000002;"/><path d="M2544.4,421.825 Q2544.5625,421.425 2544.75,421.225 Q2544.9375,421.025 2545.15,421.025 Q2545.525,421.025 2545.7625,421.25 Q2546,421.475 2546,422 L2546,423.25 Q2546,423.775 2545.775,424 Q2545.55,424.225 2545.2,424.225 Q2544.8875,424.225 2544.6875,424.0875 Q2544.4875,423.95 2544.4,423.5875 Q2544.3625,423.3375 2544.225,423.2 Q2543.975,422.9375 2543.525,422.7875 Q2543.075,422.625 2542.625,422.625 Q2542.0625,422.625 2541.5875,422.85 Q2541.125,423.075 2540.7625,423.575 Q2540.4,424.075 2540.4,424.7625 L2540.4,425.5 Q2540.4,426.325 2541.075,426.875 Q2541.75,427.425 2542.95,427.425 Q2543.6625,427.425 2544.1625,427.2625 Q2544.45,427.175 2544.775,426.8875 Q2544.9875,426.725 2545.1,426.675 Q2545.2125,426.625 2545.35,426.625 Q2545.6125,426.625 2545.8,426.8375 Q2546,427.0375 2546,427.325 Q2546,427.6 2545.725,427.925 Q2545.325,428.4 2544.6875,428.6625 Q2543.85,429.025 2542.825,429.025 Q2541.625,429.025 2540.6625,428.55 Q2539.8875,428.175 2539.3375,427.3625 Q2538.8,426.55 2538.8,425.5875 L2538.8,424.7125 Q2538.8,423.7125 2539.275,422.8375 Q2539.7625,421.9625 2540.6,421.5 Q2541.45,421.025 2542.4,421.025 Q2542.975,421.025 2543.475,421.225 Q2543.975,421.425 2544.4,421.825 Z " fill="#000000"/><text fill="#000000" font-family="sans-serif" font-size="9.6" lengthAdjust="spacing" textLength="55.2" x="2554" y="428.5531">JobOfferDao</text><line style="stroke:#A80036;stroke-width:1.2000000000000002;" x1="2531.6" x2="2610.8" y1="437.425" y2="437.425"/><line style="stroke:#A80036;stroke-width:1.2000000000000002;" x1="2531.6" x2="2610.8" y1="443.825" y2="443.825"/><!--MD5=[801b9b17078bdaec008e95236a38e322]
class sv.edu.udb.www.jobboard.models.dao.JobOfferStateDao--><rect fill="#FEFECE" filter="url(#f1l6e4gbd2j0jz)" height="38.4" id="sv.edu.udb.www.jobboard.models.dao.JobOfferStateDao" style="stroke:#A80036;stroke-width:1.2000000000000002;" width="103.2" x="2137.2" y="411.825"/><ellipse cx="2149.2" cy="424.625" fill="#ADD1B2" rx="8.8" ry="8.8" style="stroke:#A80036;stroke-width:0.8000000000000002;"/><path d="M2150.8,421.825 Q2150.9625,421.425 2151.15,421.225 Q2151.3375,421.025 2151.55,421.025 Q2151.925,421.025 2152.1625,421.25 Q2152.4,421.475 2152.4,422 L2152.4,423.25 Q2152.4,423.775 2152.175,424 Q2151.95,424.225 2151.6,424.225 Q2151.2875,424.225 2151.0875,424.0875 Q2150.8875,423.95 2150.8,423.5875 Q2150.7625,423.3375 2150.625,423.2 Q2150.375,422.9375 2149.925,422.7875 Q2149.475,422.625 2149.025,422.625 Q2148.4625,422.625 2147.9875,422.85 Q2147.525,423.075 2147.1625,423.575 Q2146.8,424.075 2146.8,424.7625 L2146.8,425.5 Q2146.8,426.325 2147.475,426.875 Q2148.15,427.425 2149.35,427.425 Q2150.0625,427.425 2150.5625,427.2625 Q2150.85,427.175 2151.175,426.8875 Q2151.3875,426.725 2151.5,426.675 Q2151.6125,426.625 2151.75,426.625 Q2152.0125,426.625 2152.2,426.8375 Q2152.4,427.0375 2152.4,427.325 Q2152.4,427.6 2152.125,427.925 Q2151.725,428.4 2151.0875,428.6625 Q2150.25,429.025 2149.225,429.025 Q2148.025,429.025 2147.0625,428.55 Q2146.2875,428.175 2145.7375,427.3625 Q2145.2,426.55 2145.2,425.5875 L2145.2,424.7125 Q2145.2,423.7125 2145.675,422.8375 Q2146.1625,421.9625 2147,421.5 Q2147.85,421.025 2148.8,421.025 Q2149.375,421.025 2149.875,421.225 Q2150.375,421.425 2150.8,421.825 Z " fill="#000000"/><text fill="#000000" font-family="sans-serif" font-size="9.6" lengthAdjust="spacing" textLength="77.6" x="2160.4" y="428.5531">JobOfferStateDao</text><line style="stroke:#A80036;stroke-width:1.2000000000000002;" x1="2138" x2="2239.6" y1="437.425" y2="437.425"/><line style="stroke:#A80036;stroke-width:1.2000000000000002;" x1="2138" x2="2239.6" y1="443.825" y2="443.825"/><!--MD5=[932b0c04f8a8c1690e0bbb81649cbbbc]
class sv.edu.udb.www.jobboard.models.dao.JobApplyDao--><rect fill="#FEFECE" filter="url(#f1l6e4gbd2j0jz)" height="38.4" id="sv.edu.udb.www.jobboard.models.dao.JobApplyDao" style="stroke:#A80036;stroke-width:1.2000000000000002;" width="83.2" x="2640" y="411.825"/><ellipse cx="2652" cy="424.625" fill="#ADD1B2" rx="8.8" ry="8.8" style="stroke:#A80036;stroke-width:0.8000000000000002;"/><path d="M2653.6,421.825 Q2653.7625,421.425 2653.95,421.225 Q2654.1375,421.025 2654.35,421.025 Q2654.725,421.025 2654.9625,421.25 Q2655.2,421.475 2655.2,422 L2655.2,423.25 Q2655.2,423.775 2654.975,424 Q2654.75,424.225 2654.4,424.225 Q2654.0875,424.225 2653.8875,424.0875 Q2653.6875,423.95 2653.6,423.5875 Q2653.5625,423.3375 2653.425,423.2 Q2653.175,422.9375 2652.725,422.7875 Q2652.275,422.625 2651.825,422.625 Q2651.2625,422.625 2650.7875,422.85 Q2650.325,423.075 2649.9625,423.575 Q2649.6,424.075 2649.6,424.7625 L2649.6,425.5 Q2649.6,426.325 2650.275,426.875 Q2650.95,427.425 2652.15,427.425 Q2652.8625,427.425 2653.3625,427.2625 Q2653.65,427.175 2653.975,426.8875 Q2654.1875,426.725 2654.3,426.675 Q2654.4125,426.625 2654.55,426.625 Q2654.8125,426.625 2655,426.8375 Q2655.2,427.0375 2655.2,427.325 Q2655.2,427.6 2654.925,427.925 Q2654.525,428.4 2653.8875,428.6625 Q2653.05,429.025 2652.025,429.025 Q2650.825,429.025 2649.8625,428.55 Q2649.0875,428.175 2648.5375,427.3625 Q2648,426.55 2648,425.5875 L2648,424.7125 Q2648,423.7125 2648.475,422.8375 Q2648.9625,421.9625 2649.8,421.5 Q2650.65,421.025 2651.6,421.025 Q2652.175,421.025 2652.675,421.225 Q2653.175,421.425 2653.6,421.825 Z " fill="#000000"/><text fill="#000000" font-family="sans-serif" font-size="9.6" lengthAdjust="spacing" textLength="57.6" x="2663.2" y="428.5531">JobApplyDao</text><line style="stroke:#A80036;stroke-width:1.2000000000000002;" x1="2640.8" x2="2722.4" y1="437.425" y2="437.425"/><line style="stroke:#A80036;stroke-width:1.2000000000000002;" x1="2640.8" x2="2722.4" y1="443.825" y2="443.825"/><!--MD5=[7d23612ac9849e007249763c3a46274d]
class sv.edu.udb.www.jobboard.models.dao.ResumeDao--><rect fill="#FEFECE" filter="url(#f1l6e4gbd2j0jz)" height="38.4" id="sv.edu.udb.www.jobboard.models.dao.ResumeDao" style="stroke:#A80036;stroke-width:1.2000000000000002;" width="82.4" x="2420.4" y="411.825"/><ellipse cx="2432.4" cy="424.625" fill="#ADD1B2" rx="8.8" ry="8.8" style="stroke:#A80036;stroke-width:0.8000000000000002;"/><path d="M2434,421.825 Q2434.1625,421.425 2434.35,421.225 Q2434.5375,421.025 2434.75,421.025 Q2435.125,421.025 2435.3625,421.25 Q2435.6,421.475 2435.6,422 L2435.6,423.25 Q2435.6,423.775 2435.375,424 Q2435.15,424.225 2434.8,424.225 Q2434.4875,424.225 2434.2875,424.0875 Q2434.0875,423.95 2434,423.5875 Q2433.9625,423.3375 2433.825,423.2 Q2433.575,422.9375 2433.125,422.7875 Q2432.675,422.625 2432.225,422.625 Q2431.6625,422.625 2431.1875,422.85 Q2430.725,423.075 2430.3625,423.575 Q2430,424.075 2430,424.7625 L2430,425.5 Q2430,426.325 2430.675,426.875 Q2431.35,427.425 2432.55,427.425 Q2433.2625,427.425 2433.7625,427.2625 Q2434.05,427.175 2434.375,426.8875 Q2434.5875,426.725 2434.7,426.675 Q2434.8125,426.625 2434.95,426.625 Q2435.2125,426.625 2435.4,426.8375 Q2435.6,427.0375 2435.6,427.325 Q2435.6,427.6 2435.325,427.925 Q2434.925,428.4 2434.2875,428.6625 Q2433.45,429.025 2432.425,429.025 Q2431.225,429.025 2430.2625,428.55 Q2429.4875,428.175 2428.9375,427.3625 Q2428.4,426.55 2428.4,425.5875 L2428.4,424.7125 Q2428.4,423.7125 2428.875,422.8375 Q2429.3625,421.9625 2430.2,421.5 Q2431.05,421.025 2432,421.025 Q2432.575,421.025 2433.075,421.225 Q2433.575,421.425 2434,421.825 Z " fill="#000000"/><text fill="#000000" font-family="sans-serif" font-size="9.6" lengthAdjust="spacing" textLength="56.8" x="2443.6" y="428.5531">ResumeDao</text><line style="stroke:#A80036;stroke-width:1.2000000000000002;" x1="2421.2" x2="2502" y1="437.425" y2="437.425"/><line style="stroke:#A80036;stroke-width:1.2000000000000002;" x1="2421.2" x2="2502" y1="443.825" y2="443.825"/><!--MD5=[7db3f5ce612fe7fa2d6c45e775feea45]
class sv.edu.udb.www.jobboard.models.dao.TagDao--><rect fill="#FEFECE" filter="url(#f1l6e4gbd2j0jz)" height="38.4" id="sv.edu.udb.www.jobboard.models.dao.TagDao" style="stroke:#A80036;stroke-width:1.2000000000000002;" width="60.8" x="2751.2" y="411.825"/><ellipse cx="2763.2" cy="424.625" fill="#ADD1B2" rx="8.8" ry="8.8" style="stroke:#A80036;stroke-width:0.8000000000000002;"/><path d="M2764.8,421.825 Q2764.9625,421.425 2765.15,421.225 Q2765.3375,421.025 2765.55,421.025 Q2765.925,421.025 2766.1625,421.25 Q2766.4,421.475 2766.4,422 L2766.4,423.25 Q2766.4,423.775 2766.175,424 Q2765.95,424.225 2765.6,424.225 Q2765.2875,424.225 2765.0875,424.0875 Q2764.8875,423.95 2764.8,423.5875 Q2764.7625,423.3375 2764.625,423.2 Q2764.375,422.9375 2763.925,422.7875 Q2763.475,422.625 2763.025,422.625 Q2762.4625,422.625 2761.9875,422.85 Q2761.525,423.075 2761.1625,423.575 Q2760.8,424.075 2760.8,424.7625 L2760.8,425.5 Q2760.8,426.325 2761.475,426.875 Q2762.15,427.425 2763.35,427.425 Q2764.0625,427.425 2764.5625,427.2625 Q2764.85,427.175 2765.175,426.8875 Q2765.3875,426.725 2765.5,426.675 Q2765.6125,426.625 2765.75,426.625 Q2766.0125,426.625 2766.2,426.8375 Q2766.4,427.0375 2766.4,427.325 Q2766.4,427.6 2766.125,427.925 Q2765.725,428.4 2765.0875,428.6625 Q2764.25,429.025 2763.225,429.025 Q2762.025,429.025 2761.0625,428.55 Q2760.2875,428.175 2759.7375,427.3625 Q2759.2,426.55 2759.2,425.5875 L2759.2,424.7125 Q2759.2,423.7125 2759.675,422.8375 Q2760.1625,421.9625 2761,421.5 Q2761.85,421.025 2762.8,421.025 Q2763.375,421.025 2763.875,421.225 Q2764.375,421.425 2764.8,421.825 Z " fill="#000000"/><text fill="#000000" font-family="sans-serif" font-size="9.6" lengthAdjust="spacing" textLength="35.2" x="2774.4" y="428.5531">TagDao</text><line style="stroke:#A80036;stroke-width:1.2000000000000002;" x1="2752" x2="2811.2" y1="437.425" y2="437.425"/><line style="stroke:#A80036;stroke-width:1.2000000000000002;" x1="2752" x2="2811.2" y1="443.825" y2="443.825"/><!--MD5=[f01e5e161715ec23945fede2eec8de80]
class org.springframework.security.core.userdetails.UserDetailsService--><rect fill="#FEFECE" filter="url(#f1l6e4gbd2j0jz)" height="38.4" id="org.springframework.security.core.userdetails.UserDetailsService" style="stroke:#A80036;stroke-width:1.2000000000000002;" width="110.4" x="224" y="69.825"/><ellipse cx="236" cy="82.625" fill="#ADD1B2" rx="8.8" ry="8.8" style="stroke:#A80036;stroke-width:0.8000000000000002;"/><path d="M237.6,79.825 Q237.7625,79.425 237.95,79.225 Q238.1375,79.025 238.35,79.025 Q238.725,79.025 238.9625,79.25 Q239.2,79.475 239.2,80 L239.2,81.25 Q239.2,81.775 238.975,82 Q238.75,82.225 238.4,82.225 Q238.0875,82.225 237.8875,82.0875 Q237.6875,81.95 237.6,81.5875 Q237.5625,81.3375 237.425,81.2 Q237.175,80.9375 236.725,80.7875 Q236.275,80.625 235.825,80.625 Q235.2625,80.625 234.7875,80.85 Q234.325,81.075 233.9625,81.575 Q233.6,82.075 233.6,82.7625 L233.6,83.5 Q233.6,84.325 234.275,84.875 Q234.95,85.425 236.15,85.425 Q236.8625,85.425 237.3625,85.2625 Q237.65,85.175 237.975,84.8875 Q238.1875,84.725 238.3,84.675 Q238.4125,84.625 238.55,84.625 Q238.8125,84.625 239,84.8375 Q239.2,85.0375 239.2,85.325 Q239.2,85.6 238.925,85.925 Q238.525,86.4 237.8875,86.6625 Q237.05,87.025 236.025,87.025 Q234.825,87.025 233.8625,86.55 Q233.0875,86.175 232.5375,85.3625 Q232,84.55 232,83.5875 L232,82.7125 Q232,81.7125 232.475,80.8375 Q232.9625,79.9625 233.8,79.5 Q234.65,79.025 235.6,79.025 Q236.175,79.025 236.675,79.225 Q237.175,79.425 237.6,79.825 Z " fill="#000000"/><text fill="#000000" font-family="sans-serif" font-size="9.6" lengthAdjust="spacing" textLength="84.8" x="247.2" y="86.5531">UserDetailsService</text><line style="stroke:#A80036;stroke-width:1.2000000000000002;" x1="224.8" x2="333.6" y1="95.425" y2="95.425"/><line style="stroke:#A80036;stroke-width:1.2000000000000002;" x1="224.8" x2="333.6" y1="101.825" y2="101.825"/><!--MD5=[c61a2b2e0999f50caf8c9e2ce781dd02]
reverse link sv.edu.udb.www.jobboard.services.AccountService to sv.edu.udb.www.jobboard.models.dao.AccountDao--><path codeLine="66" d="M463.824,331.753 C470.392,345.169 479.48,357.753 492,365.825 C511.744,378.553 1314.984,370.273 1337.6,376.625 C1362.368,383.585 1387.272,399.137 1404.656,411.705 " fill="none" id="sv.edu.udb.www.jobboard.services.AccountService-backto-sv.edu.udb.www.jobboard.models.dao.AccountDao" style="stroke:#A80036;stroke-width:0.8000000000000002;"/><polygon fill="#FFFFFF" points="459.472,321.889,458.4789,327.5718,463.3425,330.6742,464.3357,324.9914,459.472,321.889" style="stroke:#A80036;stroke-width:0.8000000000000002;"/><text fill="#000000" font-family="sans-serif" font-size="10.4" lengthAdjust="spacing" textLength="55.2" x="492.8" y="363.0211">accountDao</text><!--MD5=[188d36871ec69d6c9dff79a395a91a9b]
reverse link sv.edu.udb.www.jobboard.services.AccountService to sv.edu.udb.www.jobboard.models.dao.AccountStateDao--><path codeLine="67" d="M522.944,327.617 C547.512,343.065 575.752,357.729 604,365.825 C650.872,379.257 1435.88,359.689 1481.6,376.625 C1500.76,383.721 1518.232,399.265 1530.056,411.793 " fill="none" id="sv.edu.udb.www.jobboard.services.AccountService-backto-sv.edu.udb.www.jobboard.models.dao.AccountStateDao" style="stroke:#A80036;stroke-width:0.8000000000000002;"/><polygon fill="#FFFFFF" points="514.064,321.905,516.3702,327.1929,522.1383,327.0979,519.8321,321.81,514.064,321.905" style="stroke:#A80036;stroke-width:0.8000000000000002;"/><text fill="#000000" font-family="sans-serif" font-size="10.4" lengthAdjust="spacing" textLength="80" x="604.8" y="363.0211">accountStateDao</text><!--MD5=[4701d680f1a483307a03dc11748651a6]
reverse link sv.edu.udb.www.jobboard.services.AccountService to sv.edu.udb.www.jobboard.models.dao.AccountTypeDao--><path codeLine="68" d="M536.136,325.625 C537.688,326.249 539.248,326.849 540.8,327.425 C603.288,350.569 624.232,334.937 688.8,351.425 C707.432,356.185 710.664,362.465 729.6,365.825 C777.784,374.385 1564.56,359.489 1610.4,376.625 C1629.4,383.729 1646.64,399.265 1658.304,411.793 " fill="none" id="sv.edu.udb.www.jobboard.services.AccountService-backto-sv.edu.udb.www.jobboard.models.dao.AccountTypeDao" style="stroke:#A80036;stroke-width:0.8000000000000002;"/><polygon fill="#FFFFFF" points="526.592,321.489,529.728,326.3311,535.4037,325.2986,532.2677,320.4566,526.592,321.489" style="stroke:#A80036;stroke-width:0.8000000000000002;"/><text fill="#000000" font-family="sans-serif" font-size="10.4" lengthAdjust="spacing" textLength="77.6" x="730.4" y="363.0211">accountTypeDao</text><!--MD5=[f54e31a5dbeceae226092b1ec56681ff]
reverse link sv.edu.udb.www.jobboard.services.AccountService to sv.edu.udb.www.jobboard.models.dao.AreaDao--><path codeLine="69" d="M535.288,325.665 C537.128,326.289 538.96,326.881 540.8,327.425 C735.392,384.945 1258,297.433 1453.6,351.425 C1466.184,354.897 1466.608,362.393 1479.2,365.825 C1538.304,381.929 1974.936,350.617 2030.4,376.625 C2046,383.937 2058.416,399.281 2066.464,411.689 " fill="none" id="sv.edu.udb.www.jobboard.services.AccountService-backto-sv.edu.udb.www.jobboard.models.dao.AreaDao" style="stroke:#A80036;stroke-width:0.8000000000000002;"/><polygon fill="#FFFFFF" points="525.52,321.921,528.8606,326.6242,534.4869,325.3495,531.1463,320.6463,525.52,321.921" style="stroke:#A80036;stroke-width:0.8000000000000002;"/><text fill="#000000" font-family="sans-serif" font-size="10.4" lengthAdjust="spacing" textLength="38.4" x="1480" y="363.0211">areaDao</text><!--MD5=[2e4f57b6cddaf4aad6c83bed2800df38]
reverse link sv.edu.udb.www.jobboard.services.AccountService to sv.edu.udb.www.jobboard.models.dao.CompanyProfileDao--><path codeLine="70" d="M535.632,325.737 C537.36,326.337 539.08,326.897 540.8,327.425 C655.848,362.569 965.52,319.849 1081.6,351.425 C1094.8,355.017 1095.552,362.433 1108.8,365.825 C1192.688,387.281 1806.072,348.601 1888,376.625 C1908.64,383.689 1928.144,399.225 1941.504,411.769 " fill="none" id="sv.edu.udb.www.jobboard.services.AccountService-backto-sv.edu.udb.www.jobboard.models.dao.CompanyProfileDao" style="stroke:#A80036;stroke-width:0.8000000000000002;"/><polygon fill="#FFFFFF" points="525.824,321.929,529.1416,326.6485,534.774,325.4014,531.4565,320.6818,525.824,321.929" style="stroke:#A80036;stroke-width:0.8000000000000002;"/><text fill="#000000" font-family="sans-serif" font-size="10.4" lengthAdjust="spacing" textLength="89.6" x="1109.6" y="363.0211">companyProfileDao</text><!--MD5=[b7af2567199cf7c008a760fb3f0249d3]
reverse link sv.edu.udb.www.jobboard.services.AccountService to sv.edu.udb.www.jobboard.models.dao.ProfesionalProfileDao--><path codeLine="71" d="M536.304,325.865 C537.8,326.409 539.304,326.929 540.8,327.425 C655.72,365.305 695.072,320.281 812,351.425 C826.76,355.353 828.304,362.457 843.2,365.825 C891.672,376.777 1690.36,361.201 1737.6,376.625 C1759.088,383.641 1779.72,399.193 1793.92,411.745 " fill="none" id="sv.edu.udb.www.jobboard.services.AccountService-backto-sv.edu.udb.www.jobboard.models.dao.ProfesionalProfileDao" style="stroke:#A80036;stroke-width:0.8000000000000002;"/><polygon fill="#FFFFFF" points="526.44,321.905,529.7014,326.6635,535.3483,325.4831,532.0868,320.7246,526.44,321.905" style="stroke:#A80036;stroke-width:0.8000000000000002;"/><text fill="#000000" font-family="sans-serif" font-size="10.4" lengthAdjust="spacing" textLength="96.8" x="844" y="363.0211">profesionalProfileDao</text><!--MD5=[8dbec145198b8367069b5399c36d6d35]
reverse link sv.edu.udb.www.jobboard.services.AdminService to sv.edu.udb.www.jobboard.models.dao.CompanyProfileDao--><path codeLine="72" d="M649.76,306.721 C660.28,315.009 672.296,322.737 684.8,327.425 C793.448,368.153 1094.656,320.177 1206.4,351.425 C1219.272,355.025 1219.88,362.417 1232.8,365.825 C1303.2,384.393 1819.136,352.969 1888,376.625 C1908.632,383.713 1928.136,399.249 1941.496,411.785 " fill="none" id="sv.edu.udb.www.jobboard.services.AdminService-backto-sv.edu.udb.www.jobboard.models.dao.CompanyProfileDao" style="stroke:#A80036;stroke-width:0.8000000000000002;"/><polygon fill="#FFFFFF" points="641.672,300.009,643.3218,305.537,649.059,306.1402,647.4093,300.6123,641.672,300.009" style="stroke:#A80036;stroke-width:0.8000000000000002;"/><text fill="#000000" font-family="sans-serif" font-size="10.4" lengthAdjust="spacing" textLength="89.6" x="1233.6" y="363.0211">companyProfileDao</text><!--MD5=[b8057b643cb18aa8a2a13ed298b6b998]
reverse link sv.edu.udb.www.jobboard.services.AdminService to sv.edu.udb.www.jobboard.models.dao.ProfesionalProfileDao--><path codeLine="73" d="M650.208,306.577 C660.648,314.777 672.52,322.505 684.8,327.425 C793.832,371.121 834.392,321.577 948,351.425 C963.088,355.385 964.776,362.441 980,365.825 C1062.184,384.081 1657.6,350.401 1737.6,376.625 C1759.08,383.665 1779.712,399.209 1793.912,411.753 " fill="none" id="sv.edu.udb.www.jobboard.services.AdminService-backto-sv.edu.udb.www.jobboard.models.dao.ProfesionalProfileDao" style="stroke:#A80036;stroke-width:0.8000000000000002;"/><polygon fill="#FFFFFF" points="642.16,299.945,643.8354,305.4652,649.5754,306.0419,647.9,300.5216,642.16,299.945" style="stroke:#A80036;stroke-width:0.8000000000000002;"/><text fill="#000000" font-family="sans-serif" font-size="10.4" lengthAdjust="spacing" textLength="96.8" x="980.8" y="363.0211">profesionalProfileDao</text><!--MD5=[21101791bbb6130b408d7a0272bff108]
reverse link sv.edu.udb.www.jobboard.services.AreaService to sv.edu.udb.www.jobboard.models.dao.AreaDao--><path codeLine="74" d="M781.752,322.641 C784.536,324.449 787.424,326.065 790.4,327.425 C864.728,361.425 1446.88,329.425 1525.6,351.425 C1538.176,354.937 1538.608,362.377 1551.2,365.825 C1602.568,379.897 1982.216,353.945 2030.4,376.625 C2045.992,383.961 2058.408,399.305 2066.456,411.705 " fill="none" id="sv.edu.udb.www.jobboard.services.AreaService-backto-sv.edu.udb.www.jobboard.models.dao.AreaDao" style="stroke:#A80036;stroke-width:0.8000000000000002;"/><polygon fill="#FFFFFF" points="773.208,316.273,775.1459,321.7066,780.907,322.0076,778.969,316.574,773.208,316.273" style="stroke:#A80036;stroke-width:0.8000000000000002;"/><text fill="#000000" font-family="sans-serif" font-size="10.4" lengthAdjust="spacing" textLength="38.4" x="1552" y="363.0211">areaDao</text><!--MD5=[98fe78b49c030a53c9c7e03f8209da2a]
reverse link sv.edu.udb.www.jobboard.services.CompanyService to sv.edu.udb.www.jobboard.models.dao.AreaDao--><path codeLine="75" d="M915.496,311.569 C925.16,317.985 935.672,323.705 946.4,327.425 C1083.224,374.841 1458.216,312.153 1597.6,351.425 C1610.168,354.961 1610.616,362.353 1623.2,365.825 C1666.824,377.873 1989.488,357.273 2030.4,376.625 C2045.976,383.993 2058.392,399.337 2066.448,411.721 " fill="none" id="sv.edu.udb.www.jobboard.services.CompanyService-backto-sv.edu.udb.www.jobboard.models.dao.AreaDao" style="stroke:#A80036;stroke-width:0.8000000000000002;"/><polygon fill="#FFFFFF" points="906.88,305.521,908.97,310.898,914.7372,311.0369,912.6472,305.6599,906.88,305.521" style="stroke:#A80036;stroke-width:0.8000000000000002;"/><text fill="#000000" font-family="sans-serif" font-size="10.4" lengthAdjust="spacing" textLength="38.4" x="1624" y="363.0211">areaDao</text><!--MD5=[e88e0161a578e61da2e4304b4e882de8]
reverse link sv.edu.udb.www.jobboard.services.CompanyService to sv.edu.udb.www.jobboard.models.dao.CompanyAddressDao--><path codeLine="76" d="M915.296,311.569 C925.008,318.017 935.592,323.753 946.4,327.425 C1048.016,361.953 1808.528,322.945 1912,351.425 C1924.584,354.889 1925.032,362.305 1937.6,365.825 C2005.424,384.833 2187.624,354.185 2254.4,376.625 C2275.824,383.825 2296.544,399.177 2310.928,411.617 " fill="none" id="sv.edu.udb.www.jobboard.services.CompanyService-backto-sv.edu.udb.www.jobboard.models.dao.CompanyAddressDao" style="stroke:#A80036;stroke-width:0.8000000000000002;"/><polygon fill="#FFFFFF" points="906.64,305.481,908.73,310.858,914.4972,310.9969,912.4072,305.6199,906.64,305.481" style="stroke:#A80036;stroke-width:0.8000000000000002;"/><text fill="#000000" font-family="sans-serif" font-size="10.4" lengthAdjust="spacing" textLength="99.2" x="1938.4" y="363.0211">companyAddressDao</text><!--MD5=[a49523c25ee1091d0db9c1341f2f1be5]
reverse link sv.edu.udb.www.jobboard.services.CompanyService to sv.edu.udb.www.jobboard.models.dao.CompanyProfileDao--><path codeLine="77" d="M915.744,311.457 C925.352,317.849 935.784,323.593 946.4,327.425 C1107.248,385.473 1165.28,306.961 1330.4,351.425 C1344.216,355.145 1345.304,362.393 1359.2,365.825 C1416.256,379.913 1832.456,357.425 1888,376.625 C1908.616,383.753 1928.12,399.289 1941.488,411.809 " fill="none" id="sv.edu.udb.www.jobboard.services.CompanyService-backto-sv.edu.udb.www.jobboard.models.dao.CompanyProfileDao" style="stroke:#A80036;stroke-width:0.8000000000000002;"/><polygon fill="#FFFFFF" points="907.16,305.441,909.25,310.818,915.0172,310.9569,912.9272,305.5799,907.16,305.441" style="stroke:#A80036;stroke-width:0.8000000000000002;"/><text fill="#000000" font-family="sans-serif" font-size="10.4" lengthAdjust="spacing" textLength="89.6" x="1360" y="363.0211">companyProfileDao</text><!--MD5=[6d16e4f7f409183074eb2e82759337b6]
reverse link sv.edu.udb.www.jobboard.services.CompanyService to sv.edu.udb.www.jobboard.models.dao.JobOfferDao--><path codeLine="78" d="M915.288,311.601 C925,318.049 935.584,323.777 946.4,327.425 C1068.208,368.537 1975.272,338.665 2103.2,351.425 C2139.152,355.009 2147.272,362.033 2183.2,365.825 C2220.08,369.721 2482.72,362.009 2516.8,376.625 C2533.856,383.945 2548.528,399.289 2558.32,411.689 " fill="none" id="sv.edu.udb.www.jobboard.services.CompanyService-backto-sv.edu.udb.www.jobboard.models.dao.JobOfferDao" style="stroke:#A80036;stroke-width:0.8000000000000002;"/><polygon fill="#FFFFFF" points="906.624,305.521,908.7106,310.8993,914.4777,311.0418,912.3911,305.6635,906.624,305.521" style="stroke:#A80036;stroke-width:0.8000000000000002;"/><text fill="#000000" font-family="sans-serif" font-size="10.4" lengthAdjust="spacing" textLength="53.6" x="2184" y="363.0211">jobOfferDao</text><!--MD5=[49aa5e22fb679a6feec9367f4a7e40a5]
reverse link sv.edu.udb.www.jobboard.services.CompanyService to sv.edu.udb.www.jobboard.models.dao.JobOfferStateDao--><path codeLine="79" d="M915.304,311.537 C925.024,317.993 935.6,323.737 946.4,327.425 C1125.976,388.777 1615.944,305.233 1800,351.425 C1813.88,354.905 1814.936,362.281 1828.8,365.825 C1892.232,382.033 2061.952,353.513 2123.2,376.625 C2142.464,383.897 2160.28,399.241 2172.464,411.657 " fill="none" id="sv.edu.udb.www.jobboard.services.CompanyService-backto-sv.edu.udb.www.jobboard.models.dao.JobOfferStateDao" style="stroke:#A80036;stroke-width:0.8000000000000002;"/><polygon fill="#FFFFFF" points="906.648,305.449,908.7346,310.8273,914.5017,310.9698,912.4151,305.5915,906.648,305.449" style="stroke:#A80036;stroke-width:0.8000000000000002;"/><text fill="#000000" font-family="sans-serif" font-size="10.4" lengthAdjust="spacing" textLength="78.4" x="1829.6" y="363.0211">jobOfferStateDao</text><!--MD5=[f87408fc75e393e0f2b1d6cc4fe188b0]
reverse link sv.edu.udb.www.jobboard.services.EmailService to sv.edu.udb.www.jobboard.services.EmailServiceImpl--><path codeLine="80" d="M117.6,316.257 C117.6,339.489 117.6,367.409 117.6,389.809 " fill="none" id="sv.edu.udb.www.jobboard.services.EmailService-backto-sv.edu.udb.www.jobboard.services.EmailServiceImpl" style="stroke:#A80036;stroke-width:0.8000000000000002;stroke-dasharray:7.0,7.0;"/><polygon fill="none" points="112,315.945,117.6,299.945,123.2,315.945,112,315.945" style="stroke:#A80036;stroke-width:0.8000000000000002;"/><!--MD5=[bc871eae7bbae8a867c2ae965a713b0c]
reverse link sv.edu.udb.www.jobboard.services.JobOfferService to sv.edu.udb.www.jobboard.models.dao.JobOfferDao--><path codeLine="81" d="M1200.184,302.097 C1210.2,312.121 1222.52,321.985 1236,327.425 C1303.072,354.481 2477.632,311.001 2537.6,351.425 C2557.576,364.889 2565.728,392.873 2569.016,411.601 " fill="none" id="sv.edu.udb.www.jobboard.services.JobOfferService-backto-sv.edu.udb.www.jobboard.models.dao.JobOfferDao" style="stroke:#A80036;stroke-width:0.8000000000000002;"/><polygon fill="#FFFFFF" points="1192.992,294.473,1193.9558,300.1608,1199.5768,301.4588,1198.613,295.771,1192.992,294.473" style="stroke:#A80036;stroke-width:0.8000000000000002;"/><text fill="#000000" font-family="sans-serif" font-size="10.4" lengthAdjust="spacing" textLength="53.6" x="2551.2" y="363.0211">jobOfferDao</text><!--MD5=[92709d9c414a495d7dff920eabe3e001]
reverse link org.springframework.security.core.userdetails.UserDetailsService to sv.edu.udb.www.jobboard.services.MyUserDetailsService--><path codeLine="82" d="M279.2,124.401 C279.2,159.745 279.2,213.697 279.2,244.617 " fill="none" id="org.springframework.security.core.userdetails.UserDetailsService-backto-sv.edu.udb.www.jobboard.services.MyUserDetailsService" style="stroke:#A80036;stroke-width:0.8000000000000002;stroke-dasharray:7.0,7.0;"/><polygon fill="none" points="273.6,124.289,279.2,108.289,284.8,124.289,273.6,124.289" style="stroke:#A80036;stroke-width:0.8000000000000002;"/><!--MD5=[2ff29619f4d0f84dc6b8763d290335fa]
reverse link sv.edu.udb.www.jobboard.services.MyUserDetailsService to sv.edu.udb.www.jobboard.models.dao.AccountDao--><path codeLine="83" d="M310.528,301.649 C335.872,324.625 373.784,353.785 413.6,365.825 C511.88,395.537 1238.744,348.897 1337.6,376.625 C1362.368,383.569 1387.28,399.129 1404.656,411.697 " fill="none" id="sv.edu.udb.www.jobboard.services.MyUserDetailsService-backto-sv.edu.udb.www.jobboard.models.dao.AccountDao" style="stroke:#A80036;stroke-width:0.8000000000000002;"/><polygon fill="#FFFFFF" points="302.76,294.441,304.1016,300.0517,309.7967,300.9713,308.4551,295.3606,302.76,294.441" style="stroke:#A80036;stroke-width:0.8000000000000002;"/><text fill="#000000" font-family="sans-serif" font-size="10.4" lengthAdjust="spacing" textLength="55.2" x="414.4" y="363.0211">accountDao</text><!--MD5=[5b052b9ded582abb972f5ca27de89531]
reverse link sv.edu.udb.www.jobboard.services.ProfessionalService to sv.edu.udb.www.jobboard.models.dao.AreaDao--><path codeLine="84" d="M1109.12,325.873 C1110.608,326.425 1112.104,326.945 1113.6,327.425 C1162.856,343.297 2002.248,321.977 2044.8,351.425 C2064.472,365.041 2072.056,392.977 2074.984,411.657 " fill="none" id="sv.edu.udb.www.jobboard.services.ProfessionalService-backto-sv.edu.udb.www.jobboard.models.dao.AreaDao" style="stroke:#A80036;stroke-width:0.8000000000000002;"/><polygon fill="#FFFFFF" points="1099.368,321.801,1102.5631,326.6042,1108.2258,325.5023,1105.0307,320.699,1099.368,321.801" style="stroke:#A80036;stroke-width:0.8000000000000002;"/><text fill="#000000" font-family="sans-serif" font-size="10.4" lengthAdjust="spacing" textLength="38.4" x="2057.6" y="363.0211">areaDao</text><!--MD5=[f31d770866fa40de9398a5bb68c92bf0]
reverse link sv.edu.udb.www.jobboard.services.ProfessionalService to sv.edu.udb.www.jobboard.models.dao.JobApplyDao--><path codeLine="85" d="M1109.12,325.889 C1110.608,326.433 1112.104,326.945 1113.6,327.425 C1254.408,372.209 2299.912,315.369 2443.2,351.425 C2456.768,354.841 2457.72,362.057 2471.2,365.825 C2504.328,375.081 2594.144,362.705 2625.6,376.625 C2642.704,384.193 2657.744,399.345 2667.92,411.617 " fill="none" id="sv.edu.udb.www.jobboard.services.ProfessionalService-backto-sv.edu.udb.www.jobboard.models.dao.JobApplyDao" style="stroke:#A80036;stroke-width:0.8000000000000002;"/><polygon fill="#FFFFFF" points="1099.352,321.849,1102.5589,326.6444,1108.2188,325.5286,1105.0119,320.7332,1099.352,321.849" style="stroke:#A80036;stroke-width:0.8000000000000002;"/><text fill="#000000" font-family="sans-serif" font-size="10.4" lengthAdjust="spacing" textLength="58.4" x="2472" y="363.0211">jobApplyDao</text><!--MD5=[6442593e5380354f029dfdea351ccc07]
reverse link sv.edu.udb.www.jobboard.services.ProfessionalService to sv.edu.udb.www.jobboard.models.dao.JobOfferDao--><path codeLine="86" d="M1109.12,325.889 C1110.608,326.433 1112.104,326.945 1113.6,327.425 C1244.728,369.225 2217.584,321.857 2352,351.425 C2367.552,354.849 2369.368,361.921 2384.8,365.825 C2441.864,380.257 2463.288,352.097 2516.8,376.625 C2533.552,384.305 2548.152,399.449 2557.992,411.681 " fill="none" id="sv.edu.udb.www.jobboard.services.ProfessionalService-backto-sv.edu.udb.www.jobboard.models.dao.JobOfferDao" style="stroke:#A80036;stroke-width:0.8000000000000002;"/><polygon fill="#FFFFFF" points="1099.36,321.841,1102.5649,326.6378,1108.2253,325.5243,1105.0204,320.7276,1099.36,321.841" style="stroke:#A80036;stroke-width:0.8000000000000002;"/><text fill="#000000" font-family="sans-serif" font-size="10.4" lengthAdjust="spacing" textLength="53.6" x="2385.6" y="363.0211">jobOfferDao</text><!--MD5=[2ff6d0e4efc59a3d8d65f94ea61c6c28]
reverse link sv.edu.udb.www.jobboard.services.ProfessionalService to sv.edu.udb.www.jobboard.models.dao.ProfesionalProfileDao--><path codeLine="87" d="M1109.136,325.841 C1110.616,326.401 1112.112,326.929 1113.6,327.425 C1230.976,366.385 1549.88,320.425 1669.6,351.425 C1683.456,355.009 1685.04,360.697 1698.4,365.825 C1715.272,372.297 1721.28,368.865 1737.6,376.625 C1757,385.857 1776.696,400.105 1791.056,411.593 " fill="none" id="sv.edu.udb.www.jobboard.services.ProfessionalService-backto-sv.edu.udb.www.jobboard.models.dao.ProfesionalProfileDao" style="stroke:#A80036;stroke-width:0.8000000000000002;"/><polygon fill="#FFFFFF" points="1099.4,321.705,1102.5667,326.5271,1108.2357,325.4586,1105.0691,320.6366,1099.4,321.705" style="stroke:#A80036;stroke-width:0.8000000000000002;"/><text fill="#000000" font-family="sans-serif" font-size="10.4" lengthAdjust="spacing" textLength="96.8" x="1699.2" y="363.0211">profesionalProfileDao</text><!--MD5=[cc8d848f1d6e93881a3acc93e47722e6]
reverse link sv.edu.udb.www.jobboard.services.ProfessionalService to sv.edu.udb.www.jobboard.models.dao.ResumeDao--><path codeLine="88" d="M1109.12,325.881 C1110.608,326.433 1112.104,326.945 1113.6,327.425 C1233.344,365.721 2120.528,332.401 2244.8,351.425 C2267.488,354.897 2271.856,361.505 2294.4,365.825 C2343.512,375.241 2361.016,355.625 2406.4,376.625 C2423.248,384.425 2438.08,399.553 2448.112,411.761 " fill="none" id="sv.edu.udb.www.jobboard.services.ProfessionalService-backto-sv.edu.udb.www.jobboard.models.dao.ResumeDao" style="stroke:#A80036;stroke-width:0.8000000000000002;"/><polygon fill="#FFFFFF" points="1099.36,321.825,1102.5669,326.6204,1108.2268,325.5046,1105.0199,320.7092,1099.36,321.825" style="stroke:#A80036;stroke-width:0.8000000000000002;"/><text fill="#000000" font-family="sans-serif" font-size="10.4" lengthAdjust="spacing" textLength="52.8" x="2295.2" y="363.0211">resumeDao</text><!--MD5=[6533fa25a6b5048db6b92c800531f04b]
reverse link sv.edu.udb.www.jobboard.services.TagService to sv.edu.udb.www.jobboard.models.dao.TagDao--><path codeLine="89" d="M1335.032,270.793 C1507.816,273.361 2115.664,286.729 2612,351.425 C2668.456,358.785 2688.784,347.321 2737.6,376.625 C2751.744,385.113 2763.344,399.873 2771.08,411.753 " fill="none" id="sv.edu.udb.www.jobboard.services.TagService-backto-sv.edu.udb.www.jobboard.models.dao.TagDao" style="stroke:#A80036;stroke-width:0.8000000000000002;"/><polygon fill="#FFFFFF" points="1324.52,270.649,1329.2738,273.9172,1334.119,270.7861,1329.3652,267.5179,1324.52,270.649" style="stroke:#A80036;stroke-width:0.8000000000000002;"/><text fill="#000000" font-family="sans-serif" font-size="10.4" lengthAdjust="spacing" textLength="32.8" x="2716.8" y="363.0211">tagDao</text><text fill="#888888" font-family="sans-serif" font-size="8" lengthAdjust="spacing" textLength="0" x="2828" y="517.3297"/><text fill="#888888" font-family="sans-serif" font-size="8" lengthAdjust="spacing" textLength="0" x="2828" y="527.3922"/><text fill="#888888" font-family="sans-serif" font-size="8" lengthAdjust="spacing" textLength="313.6" x="2514.4" y="537.4547">PlantUML diagram generated by SketchIt! (https://bitbucket.org/pmesmeur/sketch.it)</text><text fill="#888888" font-family="sans-serif" font-size="8" lengthAdjust="spacing" textLength="315.2" x="2512.8" y="547.5172">For more information about this tool, please contact philippe.mesmeur@gmail.com</text><!--MD5=[1c96e6adfaa4029d31901b783c106c06]
@startuml

title __SERVICES's Class Diagram__\n

    namespace sv.edu.udb.www.jobboard {
      namespace services {
        class sv.edu.udb.www.jobboard.services.AccountService {
            ~ encoder : BCryptPasswordEncoder
            + getAdminAccount()
            + getCompanyProfile()
            + getProfesionalProfile()
            + newCompany()
            + newProfesional()
        }
        class sv.edu.udb.www.jobboard.services.AdminService {
            + getCompanyProfiles()
            + getProfessionalProfiles()
        }
        class sv.edu.udb.www.jobboard.services.AreaService {
            + addArea()
            + editArea()
            + getArea()
            + getAreaList()
            + removeArea()
        }
        class sv.edu.udb.www.jobboard.services.CompanyService {
            + getCompanyAccountForm()
            + getMyOffers()
            + publishOffer()
        }
        interface sv.edu.udb.www.jobboard.services.EmailService {
            {abstract} + sendMessageWithAttachment()
            {abstract} + sendSimpleMessage()
        }
        class sv.edu.udb.www.jobboard.services.EmailServiceImpl {
            {static} - NOREPLY_ADDRESS : String
            - emailSender : JavaMailSender
            + sendMessageWithAttachment()
            + sendSimpleMessage()
        }
        class sv.edu.udb.www.jobboard.services.JobOfferService {
            + getJobOffer()
        }
        class sv.edu.udb.www.jobboard.services.MyUserDetailsService {
            + loadUserByUsername()
        }
        class sv.edu.udb.www.jobboard.services.ProfessionalService {
            + applyToJobForm()
            + editProfessional()
            + getAllOffers()
            + getJobOfferForm()
            + getProfessional()
            + getProfessionalAccountForm()
            + getProfessionalList()
        }
        class sv.edu.udb.www.jobboard.services.TagService {
            + addTag()
            + editTag()
            + getTag()
            + getTags()
            + removeTag()
        }
      }
    }


  sv.edu.udb.www.jobboard.services.AccountService o- - sv.edu.udb.www.jobboard.models.dao.AccountDao : accountDao
  sv.edu.udb.www.jobboard.services.AccountService o- - sv.edu.udb.www.jobboard.models.dao.AccountStateDao : accountStateDao
  sv.edu.udb.www.jobboard.services.AccountService o- - sv.edu.udb.www.jobboard.models.dao.AccountTypeDao : accountTypeDao
  sv.edu.udb.www.jobboard.services.AccountService o- - sv.edu.udb.www.jobboard.models.dao.AreaDao : areaDao
  sv.edu.udb.www.jobboard.services.AccountService o- - sv.edu.udb.www.jobboard.models.dao.CompanyProfileDao : companyProfileDao
  sv.edu.udb.www.jobboard.services.AccountService o- - sv.edu.udb.www.jobboard.models.dao.ProfesionalProfileDao : profesionalProfileDao
  sv.edu.udb.www.jobboard.services.AdminService o- - sv.edu.udb.www.jobboard.models.dao.CompanyProfileDao : companyProfileDao
  sv.edu.udb.www.jobboard.services.AdminService o- - sv.edu.udb.www.jobboard.models.dao.ProfesionalProfileDao : profesionalProfileDao
  sv.edu.udb.www.jobboard.services.AreaService o- - sv.edu.udb.www.jobboard.models.dao.AreaDao : areaDao
  sv.edu.udb.www.jobboard.services.CompanyService o- - sv.edu.udb.www.jobboard.models.dao.AreaDao : areaDao
  sv.edu.udb.www.jobboard.services.CompanyService o- - sv.edu.udb.www.jobboard.models.dao.CompanyAddressDao : companyAddressDao
  sv.edu.udb.www.jobboard.services.CompanyService o- - sv.edu.udb.www.jobboard.models.dao.CompanyProfileDao : companyProfileDao
  sv.edu.udb.www.jobboard.services.CompanyService o- - sv.edu.udb.www.jobboard.models.dao.JobOfferDao : jobOfferDao
  sv.edu.udb.www.jobboard.services.CompanyService o- - sv.edu.udb.www.jobboard.models.dao.JobOfferStateDao : jobOfferStateDao
  sv.edu.udb.www.jobboard.services.EmailServiceImpl .up.|> sv.edu.udb.www.jobboard.services.EmailService
  sv.edu.udb.www.jobboard.services.JobOfferService o- - sv.edu.udb.www.jobboard.models.dao.JobOfferDao : jobOfferDao
  sv.edu.udb.www.jobboard.services.MyUserDetailsService .up.|> org.springframework.security.core.userdetails.UserDetailsService
  sv.edu.udb.www.jobboard.services.MyUserDetailsService o- - sv.edu.udb.www.jobboard.models.dao.AccountDao : accountDao
  sv.edu.udb.www.jobboard.services.ProfessionalService o- - sv.edu.udb.www.jobboard.models.dao.AreaDao : areaDao
  sv.edu.udb.www.jobboard.services.ProfessionalService o- - sv.edu.udb.www.jobboard.models.dao.JobApplyDao : jobApplyDao
  sv.edu.udb.www.jobboard.services.ProfessionalService o- - sv.edu.udb.www.jobboard.models.dao.JobOfferDao : jobOfferDao
  sv.edu.udb.www.jobboard.services.ProfessionalService o- - sv.edu.udb.www.jobboard.models.dao.ProfesionalProfileDao : profesionalProfileDao
  sv.edu.udb.www.jobboard.services.ProfessionalService o- - sv.edu.udb.www.jobboard.models.dao.ResumeDao : resumeDao
  sv.edu.udb.www.jobboard.services.TagService o- - sv.edu.udb.www.jobboard.models.dao.TagDao : tagDao


right footer


PlantUML diagram generated by SketchIt! (https://bitbucket.org/pmesmeur/sketch.it)
For more information about this tool, please contact philippe.mesmeur@gmail.com
endfooter

@enduml

PlantUML version 1.2021.11(Sat Oct 02 07:26:11 CST 2021)
(GPL source distribution)
Java Runtime: OpenJDK Runtime Environment
JVM: OpenJDK 64-Bit Server VM
Default Encoding: Cp1252
Language: en
Country: US
--></g></svg>